<svg width="54" height="51" viewBox="0 0 54 51" fill="none" xmlns="http://www.w3.org/2000/svg">
<path fill-rule="evenodd" clip-rule="evenodd" d="M25.8601 26.7915C25.0527 25.9841 25.0527 24.6751 25.8601 23.8678L47.9597 1.76814C48.7671 0.960769 50.0761 0.960768 50.8834 1.76814C51.6908 2.57552 51.6908 3.88453 50.8834 4.69191L28.7838 26.7915C27.9765 27.5989 26.6674 27.5989 25.8601 26.7915Z" fill="#FFB800"/>
<path fill-rule="evenodd" clip-rule="evenodd" d="M3.46189 1.46188C4.26926 0.654507 5.57827 0.654506 6.38565 1.46188L28.4853 23.5615C29.2926 24.3689 29.2926 25.6779 28.4853 26.4853C27.6779 27.2926 26.3689 27.2926 25.5615 26.4853L3.46189 4.38564C2.65451 3.57827 2.65451 2.26926 3.46189 1.46188Z" fill="#FFB800"/>
<path fill-rule="evenodd" clip-rule="evenodd" d="M25.4285 48.7724C24.568 47.912 24.568 46.5169 25.4285 45.6565L48.9807 22.1042C49.8411 21.2438 51.2362 21.2438 52.0966 22.1042C52.9571 22.9647 52.9571 24.3597 52.0966 25.2202L28.5444 48.7724C27.684 49.6329 26.2889 49.6329 25.4285 48.7724Z" fill="#FFB800"/>
<path fill-rule="evenodd" clip-rule="evenodd" d="M1.55799 21.7778C2.41844 20.9174 3.81349 20.9174 4.67394 21.7778L28.2262 45.3301C29.0866 46.1905 29.0866 47.5856 28.2262 48.446C27.3657 49.3065 25.9707 49.3065 25.1102 48.446L1.55799 24.8938C0.69755 24.0333 0.69755 22.6383 1.55799 21.7778Z" fill="#FFB800"/>
</svg>
