<svg width="16" height="18" viewBox="0 0 16 18" fill="none" xmlns="http://www.w3.org/2000/svg">
<path d="M7.76747 0C8.5646 -5.99521e-07 9.33123 0.294576 9.90881 0.822801C10.4864 1.35103 10.8307 2.07249 10.8706 2.83796L10.8745 2.98732H14.7582C14.9562 2.98753 15.1466 3.06042 15.2905 3.19109C15.4345 3.32177 15.5211 3.50036 15.5327 3.69038C15.5443 3.88041 15.48 4.06752 15.353 4.21349C15.2259 4.35946 15.0457 4.45327 14.8491 4.47576L14.7582 4.48098H14.0987L13.1822 15.3496C13.123 16.0509 12.7915 16.7052 12.2535 17.1822C11.7155 17.6592 11.0105 17.924 10.2787 17.9239H5.25625C4.52443 17.924 3.81941 17.6592 3.28142 17.1822C2.74343 16.7052 2.4119 16.0509 2.35277 15.3496L1.43543 4.48098H0.776747C0.586496 4.48096 0.40287 4.4138 0.260698 4.29225C0.118526 4.17069 0.0276966 4.0032 0.0054372 3.82153L0 3.73415C2.50971e-05 3.55123 0.069873 3.37468 0.196296 3.23798C0.322718 3.10128 0.496923 3.01395 0.685867 2.99255L0.776747 2.98732H4.66048C4.66048 2.19503 4.98782 1.4352 5.5705 0.874966C6.15317 0.314735 6.94344 0 7.76747 0ZM6.01979 6.90818C5.87901 6.90819 5.743 6.95721 5.6369 7.04617C5.53081 7.13514 5.46181 7.25803 5.44266 7.39213L5.43723 7.4683V13.4429L5.44266 13.5191C5.46185 13.6532 5.53087 13.776 5.63696 13.865C5.74305 13.9539 5.87904 14.0029 6.01979 14.0029C6.16054 14.0029 6.29653 13.9539 6.40262 13.865C6.50871 13.776 6.57772 13.6532 6.59691 13.5191L6.60235 13.4429V7.4683L6.59691 7.39213C6.57776 7.25803 6.50876 7.13514 6.40267 7.04617C6.29657 6.95721 6.16056 6.90819 6.01979 6.90818ZM9.51515 6.90818C9.37437 6.90819 9.23836 6.95721 9.13227 7.04617C9.02617 7.13514 8.95717 7.25803 8.93802 7.39213L8.93259 7.4683V13.4429L8.93802 13.5191C8.95721 13.6532 9.02623 13.776 9.13232 13.865C9.23841 13.9539 9.3744 14.0029 9.51515 14.0029C9.6559 14.0029 9.79189 13.9539 9.89798 13.865C10.0041 13.776 10.0731 13.6532 10.0923 13.5191L10.0977 13.4429V7.4683L10.0923 7.39213C10.0731 7.25803 10.0041 7.13514 9.89803 7.04617C9.79193 6.95721 9.65592 6.90819 9.51515 6.90818ZM7.76747 1.49366C7.37554 1.49354 6.99805 1.63586 6.71067 1.89209C6.42328 2.14832 6.24725 2.49953 6.21786 2.8753L6.21397 2.98732H9.32096L9.31708 2.8753C9.28768 2.49953 9.11165 2.14832 8.82427 1.89209C8.53689 1.63586 8.1594 1.49354 7.76747 1.49366Z" fill="#331602"/>
</svg>
