<svg width="18" height="18" viewBox="0 0 18 18" fill="none" xmlns="http://www.w3.org/2000/svg">
<path d="M1.08769 11.942L0.0265546 16.5217C-0.010051 16.6891 -0.00879611 16.8626 0.0302274 17.0294C0.069251 17.1963 0.145057 17.3523 0.252109 17.4861C0.359161 17.62 0.494753 17.7282 0.648981 17.8029C0.803209 17.8776 0.972176 17.9169 1.14354 17.9179C1.22339 17.926 1.30384 17.926 1.38369 17.9179L5.99125 16.8568L14.8378 8.04377L9.90069 3.11787L1.08769 11.942Z" fill="#331602"/>
<path d="M17.6196 3.63164L14.3245 0.33654C14.1078 0.120999 13.8147 0 13.5091 0C13.2035 0 12.9103 0.120999 12.6937 0.33654L10.8618 2.16839L15.7933 7.09988L17.6252 5.26803C17.7324 5.16028 17.8173 5.03245 17.875 4.89186C17.9328 4.75127 17.9622 4.60067 17.9617 4.44868C17.9612 4.29669 17.9307 4.14629 17.872 4.00609C17.8133 3.8659 17.7275 3.73865 17.6196 3.63164Z" fill="#331602"/>
</svg>
