<svg width="25" height="25" viewBox="0 0 25 25" fill="none" xmlns="http://www.w3.org/2000/svg">
<path d="M2.5 12.5C2.5 9.84784 3.55357 7.3043 5.42893 5.42893C7.3043 3.55357 9.84784 2.5 12.5 2.5C15.1522 2.5 17.6957 3.55357 19.5711 5.42893C21.4464 7.3043 22.5 9.84784 22.5 12.5C22.5 15.1522 21.4464 17.6957 19.5711 19.5711C17.6957 21.4464 15.1522 22.5 12.5 22.5C9.84784 22.5 7.3043 21.4464 5.42893 19.5711C3.55357 17.6957 2.5 15.1522 2.5 12.5V12.5ZM12.5 0C5.59625 0 0 5.59625 0 12.5C0 19.4037 5.59625 25 12.5 25C19.4037 25 25 19.4037 25 12.5C25 5.59625 19.4037 0 12.5 0ZM10.2587 8.49125C10.023 8.26355 9.70724 8.13756 9.3795 8.14041C9.05175 8.14326 8.73824 8.27472 8.50648 8.50648C8.27472 8.73824 8.14326 9.05175 8.14041 9.3795C8.13756 9.70724 8.26355 10.023 8.49125 10.2587L10.7325 12.5L8.49125 14.7413C8.37186 14.8566 8.27663 14.9945 8.21112 15.147C8.14561 15.2995 8.11113 15.4635 8.10969 15.6295C8.10824 15.7955 8.13987 15.9601 8.20272 16.1137C8.26557 16.2673 8.35839 16.4069 8.47576 16.5242C8.59312 16.6416 8.73269 16.7344 8.88631 16.7973C9.03993 16.8601 9.20453 16.8918 9.3705 16.8903C9.53648 16.8889 9.7005 16.8544 9.85301 16.7889C10.0055 16.7234 10.1434 16.6281 10.2587 16.5087L12.5 14.2675L14.7413 16.5087C14.977 16.7364 15.2928 16.8624 15.6205 16.8596C15.9482 16.8567 16.2618 16.7253 16.4935 16.4935C16.7253 16.2618 16.8567 15.9482 16.8596 15.6205C16.8624 15.2928 16.7364 14.977 16.5087 14.7413L14.2675 12.5L16.5087 10.2587C16.7364 10.023 16.8624 9.70724 16.8596 9.3795C16.8567 9.05175 16.7253 8.73824 16.4935 8.50648C16.2618 8.27472 15.9482 8.14326 15.6205 8.14041C15.2928 8.13756 14.977 8.26355 14.7413 8.49125L12.5 10.7325L10.2587 8.49125V8.49125Z" fill="white"/>
</svg>
