<svg width="25" height="26" viewBox="0 0 25 26" fill="none" xmlns="http://www.w3.org/2000/svg">
<path d="M24.9195 7.39116C24.9055 6.33972 24.7086 5.29872 24.3378 4.31475C24.0162 3.48477 23.525 2.73101 22.8956 2.10161C22.2662 1.47221 21.5125 0.981023 20.6825 0.659429C19.7112 0.294809 18.685 0.0976528 17.6477 0.076355C16.3122 0.0166594 15.8888 0 12.4986 0C9.10845 0 8.67392 9.30909e-08 7.34812 0.076355C6.3113 0.0978094 5.28563 0.294963 4.31475 0.659429C3.48464 0.980799 2.73076 1.47191 2.10133 2.10133C1.47191 2.73076 0.980799 3.48464 0.659429 4.31475C0.294079 5.28534 0.09735 6.31124 0.0777432 7.34812C0.0180475 8.68503 0 9.10845 0 12.4986C0 15.8888 -1.03434e-08 16.3219 0.0777432 17.6491C0.0985673 18.6875 0.294313 19.7121 0.659429 20.6853C0.981338 21.5151 1.47281 22.2687 2.10245 22.8978C2.73209 23.527 3.48604 24.0179 4.31614 24.3392C5.28436 24.7185 6.31021 24.9297 7.34951 24.9639C8.68642 25.0236 9.10984 25.0416 12.5 25.0416C15.8902 25.0416 16.3247 25.0416 17.6505 24.9639C18.6877 24.9435 19.714 24.7468 20.6853 24.3822C21.515 24.0603 22.2686 23.5689 22.8979 22.9396C23.5273 22.3102 24.0186 21.5567 24.3406 20.7269C24.7057 19.7551 24.9014 18.7306 24.9223 17.6908C24.982 16.3552 25 15.9318 25 12.5403C24.9972 9.1501 24.9972 8.71974 24.9195 7.39116ZM12.4903 18.9097C8.94464 18.9097 6.0723 16.0373 6.0723 12.4917C6.0723 8.94602 8.94464 6.07369 12.4903 6.07369C14.1924 6.07369 15.8249 6.74987 17.0285 7.95347C18.2321 9.15708 18.9083 10.7895 18.9083 12.4917C18.9083 14.1938 18.2321 15.8263 17.0285 17.0299C15.8249 18.2335 14.1924 18.9097 12.4903 18.9097ZM19.1637 7.33285C18.3349 7.33285 17.6671 6.66371 17.6671 5.8363C17.6671 5.63986 17.7058 5.44534 17.781 5.26385C17.8562 5.08237 17.9664 4.91746 18.1053 4.77856C18.2442 4.63966 18.4091 4.52947 18.5906 4.4543C18.7721 4.37912 18.9666 4.34043 19.163 4.34043C19.3595 4.34043 19.554 4.37912 19.7355 4.4543C19.9169 4.52947 20.0818 4.63966 20.2207 4.77856C20.3597 4.91746 20.4698 5.08237 20.545 5.26385C20.6202 5.44534 20.6589 5.63986 20.6589 5.8363C20.6589 6.66371 19.9897 7.33285 19.1637 7.33285Z" fill="#593C34"/>
<path d="M12.4908 16.6607C14.7932 16.6607 16.6597 14.7942 16.6597 12.4917C16.6597 10.1893 14.7932 8.32275 12.4908 8.32275C10.1883 8.32275 8.32178 10.1893 8.32178 12.4917C8.32178 14.7942 10.1883 16.6607 12.4908 16.6607Z" fill="#593C34"/>
</svg>
