<svg width="541" height="498" viewBox="0 0 541 498" fill="none" xmlns="http://www.w3.org/2000/svg">
<path d="M247.044 206.821C239.075 209.516 232.699 212.21 226.005 214.112C206.878 219.502 193.489 231.39 184.882 248.984C181.535 255.8 178.347 262.774 174.362 269.115C164.64 285.124 149.657 292.891 131.327 294.793C128.777 295.11 124.951 292.891 123.198 290.672C114.272 278.942 113.794 266.103 118.735 252.788C131.168 219.819 174.362 189.544 209.906 189.068C224.57 188.751 237.003 192.872 247.044 206.821Z" fill="#B37143"/>
<path d="M210.225 3.61401C208.949 11.5394 208.312 18.0382 206.877 24.537C201.618 47.0452 207.356 66.5416 221.701 83.9775C236.524 102.047 241.624 121.702 233.814 144.21C231.902 149.6 229.033 151.819 223.295 152.294C205.283 153.721 192.532 144.686 183.925 130.42C165.755 100.145 162.248 67.6512 173.884 34.206C179.462 18.3552 190.141 6.62566 210.225 3.61401Z" fill="#B37143"/>
<path d="M389.221 113.302C385.555 117.581 382.526 122.019 378.541 125.507C360.69 141.674 353.836 161.488 355.589 185.106C356.227 193.506 356.227 202.224 354.952 210.467C352.561 225.367 343.476 236.304 331.362 244.705C328.971 246.29 324.349 246.29 321.48 245.18C307.453 239.157 300.281 227.427 299.484 213.003C297.412 171.632 314.148 138.821 348.257 115.204C361.168 106.486 375.991 106.327 389.221 113.302Z" fill="#D6A17C"/>
<path d="M244.335 147.381C245.77 140.248 246.726 134.859 247.842 129.628C251.667 113.143 249.117 97.6092 237.163 85.5626C214.848 62.896 213.095 36.5837 219.63 7.89377C221.224 1.07794 224.252 -0.190127 230.309 0.602412C243.538 2.50451 253.899 9.16184 261.39 19.6234C284.183 51.3249 287.53 85.5626 271.91 121.227C266.809 132.956 258.043 142.15 244.335 147.381Z" fill="#D6A17C"/>
<path d="M338.693 251.52C344.272 246.607 348.257 243.436 352.082 240.108C366.108 227.11 371.687 211.101 368.021 192.397C361.646 161.329 377.266 139.297 398.305 119.8C399.899 118.374 405.318 118.849 407.55 120.593C420.939 130.579 425.402 145.162 425.083 160.695C424.286 196.36 408.825 224.891 378.86 244.704C367.543 251.837 355.27 254.849 338.693 251.52Z" fill="#B37143"/>
<path d="M136.587 304.779C144.238 302.56 150.295 300.975 156.352 299.073C172.291 294.159 183.608 283.856 188.389 268.005C197.793 236.938 221.702 223.94 250.392 216.649C252.623 216.015 257.246 218.709 258.362 221.087C264.1 232.658 262.984 244.704 258.521 256.434C245.77 290.196 206.4 317.142 170.219 316.984C158.264 316.667 146.948 314.448 136.587 304.779Z" fill="#D6A17C"/>
<mask id="path-7-outside-1" maskUnits="userSpaceOnUse" x="0.970581" y="333.944" width="540" height="122" fill="black">
<rect fill="white" x="0.970581" y="333.944" width="540" height="122"/>
<path d="M24.7246 342.617C28.5292 339.608 32.6877 337.484 37.2002 336.245C41.8011 335.006 46.1366 334.652 50.2067 335.183C54.3652 335.714 58.0371 337.174 61.2224 339.564C64.4076 341.865 66.5312 345.14 67.5929 349.388C68.3007 353.017 68.0353 356.734 66.7966 360.54C65.6463 364.346 63.8325 367.842 61.3551 371.028C58.8777 374.125 55.8694 376.692 52.3302 378.728C48.791 380.675 45.0748 381.56 41.1818 381.383C40.5624 381.117 39.9873 380.675 39.4564 380.055C38.9255 379.347 38.4831 378.595 38.1292 377.798C37.7753 377.002 37.5099 376.205 37.3329 375.409C37.1559 374.524 37.0675 373.771 37.0675 373.152C40.6951 373.152 44.0573 372.444 47.1541 371.028C50.2509 369.523 52.9053 367.62 55.1173 365.319C57.3293 363.018 58.9219 360.451 59.8952 357.619C60.9569 354.787 61.2224 351.955 60.6915 349.123C59.8067 346.467 58.2141 344.476 55.9136 343.148C53.6131 341.732 50.9588 340.98 47.9504 340.891C45.0306 340.714 41.9338 341.113 38.6601 342.086C35.4748 343.06 32.555 344.564 29.9006 346.6C27.1578 348.636 24.9015 350.981 23.1319 353.636C21.3623 356.291 20.0352 359.035 19.1504 361.867C18.2656 364.611 17.7789 367.31 17.6904 369.966C17.6904 372.621 18.0444 374.966 18.7522 377.002C19.3716 379.038 20.2121 380.896 21.2739 382.578C22.3356 384.171 23.5301 385.72 24.8573 387.224C26.1845 388.64 27.5559 390.012 28.9716 391.34C30.4757 392.667 31.9357 393.995 33.3513 395.323C35.1209 397.004 36.802 398.774 38.3947 400.633C39.9873 402.492 41.3145 404.483 42.3762 406.607C43.5265 408.731 44.3228 411.032 44.7652 413.511C45.2961 415.989 45.4288 418.644 45.1633 421.476C44.4555 425.016 43.261 428.203 41.5799 431.035C39.9873 433.778 38.085 436.124 35.873 438.071C33.661 440.018 31.2278 441.523 28.5734 442.585C25.919 443.647 23.1762 444.178 20.3448 444.178C18.0444 444.178 15.7881 443.824 13.5761 443.116C11.4526 442.408 9.55033 441.39 7.86922 440.062C6.18811 438.823 4.81667 437.23 3.75492 435.283C2.69317 433.424 2.11805 431.3 2.02957 428.911C1.85261 427.583 2.07381 426.123 2.69316 424.53C3.31252 422.848 4.15307 421.388 5.21483 420.149C6.36506 418.821 7.64802 417.847 9.06369 417.228C10.4794 416.608 11.9393 416.564 13.4434 417.095C12.2047 417.715 10.8775 418.555 9.46185 419.618C8.13465 420.591 7.38258 421.963 7.20562 423.733C6.49779 426.742 6.80746 429.353 8.13466 431.566C9.46185 433.778 11.2757 435.416 13.5761 436.478C15.8766 437.54 18.4425 437.894 21.2739 437.54C24.1937 437.274 26.8923 436.124 29.3697 434.088C30.9624 433.026 32.2011 431.743 33.0859 430.238C33.9707 428.734 34.5458 427.185 34.8112 425.592C35.1652 423.999 35.2536 422.405 35.0767 420.812C34.8997 419.219 34.59 417.715 34.1476 416.299C32.9089 412.581 31.0509 409.484 28.5734 407.005C26.1845 404.527 23.6186 402.182 20.8757 399.969C18.2213 397.668 15.6997 395.234 13.3107 392.667C10.9218 390.012 9.15217 386.693 8.00194 382.711C7.11714 379.436 6.85171 375.94 7.20562 372.223C7.55954 368.505 8.44433 364.832 9.86001 361.204C11.3642 357.575 13.355 354.167 15.8324 350.981C18.3098 347.706 21.2739 344.918 24.7246 342.617Z"/>
<path d="M84.4057 346.069C85.7329 345.45 87.1044 345.14 88.52 345.14C89.9357 345.051 91.2187 345.272 92.3689 345.804C93.5191 346.246 94.4482 346.998 95.156 348.06C95.8638 349.123 96.2178 350.362 96.2178 351.778C96.3947 354.698 95.8196 357.708 94.4924 360.805C93.1652 363.814 91.3956 366.779 89.1836 369.7C87.0601 372.532 84.6712 375.188 82.0168 377.666C79.3624 380.144 76.7965 382.179 74.3191 383.773L72.1956 392.004C73.2573 390.499 74.5845 389.171 76.1771 388.021C77.8583 386.782 79.5394 385.941 81.2205 385.498C82.9901 384.967 84.5827 384.923 85.9984 385.366C87.5025 385.808 88.6085 386.915 89.3163 388.685C89.7587 390.012 89.8915 391.827 89.7145 394.128C89.626 396.34 89.2721 398.819 88.6528 401.562C88.1219 404.217 87.4583 407.005 86.662 409.926C85.9541 412.847 85.2463 415.679 84.5385 418.423C83.9191 421.166 83.3882 423.733 82.9458 426.123C82.5919 428.424 82.4592 430.282 82.5477 431.699C84.8481 430.725 87.1486 428.911 89.4491 426.255C91.838 423.512 94.0058 420.635 95.9523 417.626C97.9873 414.528 99.7127 411.608 101.128 408.864C102.544 406.032 103.517 404.04 104.048 402.89L107.366 403.288C106.216 406.651 104.8 409.926 103.119 413.112C101.527 416.299 99.8454 419.263 98.0758 422.007C96.3062 424.662 94.5809 427.008 92.8998 429.043C91.2187 430.991 89.7145 432.407 88.3873 433.292C86.7947 434.531 85.1578 435.416 83.4767 435.947C81.8841 436.566 80.3799 436.788 78.9642 436.611C77.6371 436.522 76.4868 436.08 75.5135 435.283C74.6287 434.487 74.1421 433.336 74.0536 431.831C73.9651 429.619 74.0979 427.141 74.4518 424.397C74.8942 421.653 75.4251 418.865 76.0444 416.033C76.6638 413.112 77.3274 410.28 78.0352 407.536C78.743 404.704 79.3624 402.182 79.8933 399.969C80.4242 397.668 80.7781 395.765 80.955 394.261C81.2205 392.667 81.2205 391.694 80.955 391.34C79.8933 391.251 78.8758 391.473 77.9025 392.004C76.9292 392.535 75.9559 393.243 74.9827 394.128C74.0979 395.013 73.2573 395.986 72.461 397.048C71.6647 398.111 70.9126 399.084 70.2048 399.969L62.3743 432.097C62.1089 433.07 61.5338 433.778 60.649 434.221C59.8527 434.575 58.9236 434.796 57.8619 434.885C56.8886 435.062 55.9153 435.106 54.9421 435.018C53.8803 434.929 53.0397 434.885 52.4204 434.885C53.5706 429.574 54.7209 424.53 55.8711 419.75C57.0213 414.971 58.1273 410.236 59.1891 405.545C60.3393 400.854 61.4453 396.119 62.507 391.34C63.6573 386.561 64.8518 381.516 66.0905 376.205C66.7098 373.993 67.5504 371.382 68.6121 368.373C69.6739 365.363 70.9568 362.443 72.461 359.61C73.9652 356.69 75.6905 354.035 77.6371 351.645C79.6721 349.167 81.9283 347.308 84.4057 346.069ZM84.6712 351.91C83.6094 353.415 82.6362 355.274 81.7514 357.486C80.8666 359.61 80.026 361.867 79.2297 364.257C78.5218 366.558 77.9025 368.859 77.3716 371.16C76.8407 373.373 76.3541 375.32 75.9117 377.002C77.8583 375.497 79.7163 373.771 81.4859 371.824C83.344 369.877 84.9809 367.842 86.3965 365.717C87.9007 363.593 89.1394 361.469 90.1127 359.345C91.0859 357.132 91.7053 355.052 91.9707 353.105C92.1477 351.866 91.9707 350.981 91.4399 350.45C90.909 349.831 90.2454 349.521 89.4491 349.521C88.6528 349.432 87.8122 349.609 86.9274 350.052C86.0426 350.494 85.2905 351.114 84.6712 351.91Z"/>
<path d="M118.47 384.038C121.921 383.419 124.664 383.374 126.699 383.905C128.734 384.436 130.238 385.41 131.211 386.826C132.184 388.242 132.715 390.012 132.804 392.136C132.892 394.172 132.715 396.429 132.273 398.907C131.919 400.943 131.521 403.377 131.078 406.209C130.636 409.041 129.972 412.006 129.088 415.104C128.203 418.113 127.008 421.122 125.504 424.131C124 427.141 122.053 429.796 119.664 432.097C117.718 433.867 115.506 435.062 113.029 435.681C110.64 436.301 108.339 436.345 106.127 435.814C103.915 435.372 102.057 434.442 100.553 433.026C99.0488 431.61 98.2524 429.751 98.164 427.45C97.6331 423.468 97.8543 418.998 98.8276 414.042C99.8008 408.997 101.172 404.35 102.942 400.102C104.446 396.119 106.348 392.712 108.649 389.88C110.949 387.047 114.223 385.1 118.47 384.038ZM118.205 388.817C117.231 389.968 116.479 391.074 115.948 392.136C115.506 393.198 115.196 394.261 115.019 395.323C114.842 396.296 114.798 397.314 114.887 398.376C114.975 399.438 115.064 400.589 115.152 401.828C114.267 402.005 113.471 401.961 112.763 401.695C112.055 401.341 111.436 400.943 110.905 400.5C109.755 404.926 108.737 409.439 107.852 414.042C106.968 418.644 106.658 423.025 106.923 427.185C107.277 429.486 108.251 430.814 109.843 431.168C111.436 431.522 113.117 430.858 114.887 429.176C116.037 427.849 117.054 426.078 117.939 423.866C118.824 421.565 119.62 419.042 120.328 416.299C121.036 413.555 121.655 410.767 122.186 407.935C122.717 405.103 123.159 402.492 123.513 400.102C123.69 398.686 123.823 397.226 123.912 395.721C124.088 394.216 124 392.933 123.646 391.871C123.381 390.72 122.806 389.88 121.921 389.348C121.124 388.729 119.886 388.552 118.205 388.817Z"/>
<path d="M138.297 406.74C137.501 406.209 136.97 405.28 136.704 403.952C136.439 402.536 136.35 400.943 136.439 399.173C136.616 397.314 136.97 395.367 137.501 393.331C138.032 391.296 138.695 389.393 139.491 387.623C140.288 385.852 141.173 384.348 142.146 383.109C143.208 381.781 144.314 380.896 145.464 380.454C146.968 379.923 147.897 380.232 148.251 381.383C148.605 382.534 148.561 384.127 148.118 386.162C147.676 388.198 146.968 390.499 145.995 393.066C145.021 395.544 144.004 397.845 142.942 399.969C145.951 397.668 148.339 395.146 150.109 392.402C151.967 389.658 153.339 387.313 154.223 385.366C154.754 384.923 155.551 384.746 156.612 384.835C157.763 384.923 158.868 385.189 159.93 385.631C161.08 385.985 162.01 386.472 162.717 387.092C163.514 387.711 163.868 388.331 163.779 388.95C161.479 394.703 159.311 400.589 157.276 406.607C155.329 412.537 153.781 418.467 152.631 424.397C152.454 425.813 152.365 427.141 152.365 428.38C152.454 429.53 152.852 430.238 153.56 430.504C154.445 430.15 155.772 428.911 157.541 426.787C159.399 424.662 161.346 422.14 163.381 419.219C165.504 416.299 167.584 413.201 169.619 409.926C171.742 406.651 173.468 403.686 174.795 401.031C175.237 401.031 175.901 401.076 176.786 401.164C177.67 401.253 178.334 401.253 178.776 401.164C177.361 403.996 175.68 407.094 173.733 410.457C171.875 413.82 169.884 417.095 167.761 420.281C165.726 423.379 163.646 426.211 161.523 428.778C159.488 431.345 157.541 433.203 155.683 434.354C154.179 435.239 152.675 435.681 151.171 435.681C149.667 435.77 148.295 435.504 147.056 434.885C145.906 434.354 144.977 433.469 144.269 432.23C143.65 430.991 143.429 429.486 143.606 427.716C143.96 423.202 144.977 418.113 146.658 412.449C148.428 406.696 150.33 401.12 152.365 395.721C151.834 396.694 150.994 397.934 149.844 399.438C148.693 400.943 147.41 402.315 145.995 403.554C144.579 404.793 143.163 405.766 141.748 406.474C140.421 407.182 139.27 407.271 138.297 406.74Z"/>
<path d="M182.888 350.583C183.418 349.875 184.082 349.344 184.878 348.99C185.763 348.636 186.648 348.37 187.533 348.193C188.506 348.016 189.391 347.972 190.187 348.06C190.983 348.06 191.603 348.105 192.045 348.193L187.931 367.31L199.477 367.178C199.389 369.036 198.858 370.364 197.885 371.16C196.912 371.957 195.761 372.488 194.434 372.754C193.107 372.931 191.691 372.975 190.187 372.886C188.771 372.709 187.577 372.621 186.604 372.621L174.924 427.185C176.606 426.211 178.375 424.751 180.233 422.804C182.091 420.857 183.905 418.732 185.675 416.431C187.444 414.13 189.081 411.829 190.585 409.528C192.178 407.138 193.505 405.014 194.567 403.155C195.009 403.155 195.717 403.111 196.69 403.023C197.752 402.934 198.504 402.846 198.947 402.757C197.973 404.881 196.602 407.404 194.832 410.324C193.063 413.157 191.072 416.077 188.86 419.086C186.736 422.007 184.524 424.795 182.224 427.45C180.012 430.017 177.977 432.008 176.119 433.424C174.792 434.575 173.465 435.327 172.137 435.681C170.81 436.035 169.616 436.08 168.554 435.814C167.492 435.549 166.696 434.973 166.165 434.088C165.634 433.115 165.501 431.92 165.767 430.504C167.359 420.857 169.217 411.209 171.341 401.562C173.553 391.915 175.632 382.224 177.579 372.488C176.871 372.4 175.986 372.355 174.924 372.355C173.951 372.355 172.978 372.355 172.005 372.355C171.12 372.267 170.323 372.134 169.616 371.957C168.996 371.692 168.687 371.205 168.687 370.497C168.775 369.789 169.262 369.258 170.147 368.904C171.031 368.55 172.005 368.328 173.066 368.24C174.128 368.063 175.19 368.019 176.252 368.107C177.313 368.107 178.065 368.107 178.508 368.107C178.862 366.514 179.26 364.877 179.702 363.195C180.145 361.513 180.543 359.876 180.897 358.283C181.251 356.69 181.605 355.229 181.959 353.902C182.312 352.486 182.622 351.379 182.888 350.583Z"/>
<path d="M198.878 386.959C200.559 385.366 202.329 384.171 204.187 383.374C206.134 382.489 207.947 382.091 209.628 382.179C211.398 382.268 212.946 382.755 214.274 383.64C215.601 384.525 216.486 385.897 216.928 387.755C217.636 390.588 217.592 393.774 216.795 397.314C216.087 400.766 214.805 404.085 212.946 407.271C211.088 410.369 208.744 413.024 205.912 415.236C203.081 417.361 199.94 418.511 196.489 418.688C196.401 419.75 196.401 420.989 196.489 422.405C196.578 423.822 196.843 425.061 197.286 426.123C197.816 427.185 198.569 427.981 199.542 428.512C200.515 429.043 201.798 428.999 203.391 428.38C205.691 427.318 207.947 425.769 210.159 423.733C212.371 421.697 214.406 419.485 216.264 417.095C218.122 414.705 219.804 412.316 221.308 409.926C222.9 407.448 224.183 405.28 225.157 403.421L229.005 403.554C228.032 406.209 226.528 409.13 224.493 412.316C222.546 415.413 220.379 418.423 217.99 421.343C215.601 424.264 213.079 426.875 210.425 429.176C207.859 431.389 205.47 432.938 203.258 433.823C201.488 434.708 199.674 435.15 197.816 435.15C195.958 435.239 194.233 434.929 192.64 434.221C191.136 433.513 189.853 432.451 188.792 431.035C187.73 429.619 187.066 427.849 186.801 425.724C186.447 423.689 186.447 420.945 186.801 417.493C187.243 413.953 187.951 410.324 188.924 406.607C189.986 402.801 191.357 399.128 193.039 395.588C194.72 391.959 196.666 389.083 198.878 386.959ZM197.286 413.511C199.321 413.334 201.09 412.758 202.594 411.785C204.187 410.723 205.558 409.439 206.709 407.935C207.859 406.43 208.788 404.793 209.496 403.023C210.204 401.253 210.779 399.571 211.221 397.978C211.487 397.004 211.708 395.898 211.885 394.659C212.15 393.42 212.239 392.269 212.15 391.207C212.062 390.057 211.796 389.127 211.354 388.419C211 387.623 210.292 387.224 209.23 387.224C207.815 387.401 206.443 388.463 205.116 390.411C203.789 392.358 202.55 394.659 201.4 397.314C200.338 399.969 199.409 402.801 198.613 405.811C197.905 408.731 197.463 411.298 197.286 413.511Z"/>
<path d="M225.336 386.693C226.929 385.808 228.698 385.366 230.645 385.366C232.68 385.366 233.963 385.852 234.494 386.826L233.299 392.136C234.892 390.632 236.706 389.171 238.741 387.755C240.864 386.339 242.988 385.454 245.111 385.1C246.881 384.835 248.252 384.967 249.225 385.498C250.287 386.029 251.084 386.782 251.614 387.755C252.145 388.729 252.411 389.88 252.411 391.207C252.499 392.446 252.499 393.641 252.411 394.792C251.703 400.633 250.597 406.43 249.093 412.183C247.677 417.847 246.527 423.6 245.642 429.442C246.704 428.822 247.81 427.804 248.96 426.388C250.199 424.884 251.393 423.158 252.543 421.211C253.782 419.263 254.977 417.272 256.127 415.236C257.277 413.112 258.295 411.077 259.179 409.13C260.153 407.182 260.993 405.501 261.701 404.085C262.409 402.58 262.94 401.518 263.294 400.899L267.275 401.031C266.037 403.332 264.577 406.12 262.896 409.395C261.303 412.67 259.622 415.9 257.852 419.086C256.171 422.273 254.49 425.149 252.809 427.716C251.216 430.282 249.801 432.008 248.562 432.893C247.589 433.69 246.438 434.31 245.111 434.752C243.784 435.195 242.501 435.416 241.262 435.416C240.024 435.504 238.962 435.327 238.077 434.885C237.281 434.442 236.883 433.646 236.883 432.495C236.794 430.282 236.927 427.716 237.281 424.795C237.723 421.786 238.254 418.777 238.873 415.768C239.581 412.67 240.289 409.661 240.997 406.74C241.705 403.731 242.236 401.076 242.589 398.774C243.032 396.473 243.253 394.659 243.253 393.331C243.342 392.004 243.032 391.428 242.324 391.605C240.554 392.313 238.519 393.685 236.219 395.721C234.007 397.757 232.237 400.5 230.91 403.952C230.025 406.607 229.229 409.528 228.521 412.714C227.813 415.9 227.15 418.954 226.53 421.874C225.911 424.795 225.38 427.406 224.938 429.707C224.495 431.92 224.141 433.424 223.876 434.221C222.549 434.752 221.045 434.973 219.364 434.885C217.771 434.796 216.355 434.708 215.117 434.619L225.336 386.693Z"/>
<path d="M261.851 398.111C261.763 395.721 262.161 393.375 263.046 391.074C263.931 388.773 265.125 386.782 266.629 385.1C268.222 383.33 270.036 381.958 272.071 380.985C274.194 379.923 276.406 379.392 278.707 379.392C281.892 379.392 284.193 380.277 285.608 382.047C287.112 383.728 287.864 385.72 287.864 388.021C287.864 390.234 287.245 392.402 286.006 394.526C284.768 396.562 283.042 397.889 280.83 398.509C279.415 398.951 278.22 398.951 277.247 398.509C276.274 398.066 275.522 397.358 274.991 396.385C274.548 395.411 274.327 394.261 274.327 392.933C274.327 391.605 274.548 390.322 274.991 389.083L280.034 388.95C279.769 390.543 279.724 392.048 279.901 393.464C280.078 394.792 280.521 395.411 281.228 395.323C281.759 394.615 282.202 393.73 282.556 392.667C282.998 391.517 283.175 390.411 283.087 389.348C283.087 388.198 282.821 387.136 282.29 386.162C281.759 385.189 280.83 384.525 279.503 384.171C278.618 383.994 277.689 384.038 276.716 384.304C275.831 384.569 274.991 385.012 274.194 385.631C273.398 386.251 272.69 387.047 272.071 388.021C271.54 388.994 271.23 390.057 271.142 391.207C270.965 392.8 271.053 394.393 271.407 395.986C271.85 397.491 272.425 398.951 273.133 400.367C273.84 401.784 274.637 403.2 275.522 404.616C276.406 405.943 277.247 407.271 278.043 408.599C279.724 411.431 280.786 414.528 281.228 417.892C281.759 421.166 280.919 424.884 278.707 429.043C277.38 431.256 275.566 432.893 273.265 433.955C271.053 435.018 268.753 435.637 266.364 435.814C264.063 435.991 261.896 435.726 259.861 435.018C257.826 434.398 256.366 433.469 255.481 432.23C254.242 430.371 254.109 428.114 255.083 425.459C255.968 422.804 257.693 420.458 260.259 418.423L267.027 421.476C265.789 422.096 264.639 422.892 263.577 423.866C262.603 424.751 261.851 425.68 261.321 426.654C260.878 427.539 260.701 428.38 260.79 429.176C260.967 429.884 261.586 430.327 262.648 430.504C265.214 430.769 267.426 430.061 269.284 428.38C271.142 426.698 271.938 424.574 271.673 422.007C271.407 419.883 270.744 417.847 269.682 415.9C268.709 413.953 267.647 412.05 266.497 410.192C265.346 408.245 264.285 406.297 263.311 404.35C262.427 402.403 261.94 400.323 261.851 398.111Z"/>
<path d="M359.063 339.298C361.806 338.325 364.593 337.794 367.424 337.705C370.256 337.617 372.91 338.015 375.388 338.9C377.865 339.697 379.989 340.98 381.758 342.75C383.616 344.52 384.899 346.777 385.607 349.521C386.757 353.681 386.757 358.15 385.607 362.929C384.545 367.62 382.599 372.134 379.767 376.471C377.024 380.719 373.574 384.525 369.415 387.888C365.257 391.251 360.744 393.641 355.878 395.057C352.781 396.031 350.392 396.163 348.711 395.455C347.03 394.747 345.88 393.641 345.26 392.136C344.641 390.543 344.508 388.773 344.862 386.826C345.216 384.79 345.88 382.888 346.853 381.117C348.357 379.967 349.95 379.082 351.631 378.462C353.4 377.843 355.126 377.179 356.807 376.471C356.188 378.064 355.435 379.79 354.551 381.648C353.754 383.419 353.71 385.056 354.418 386.561C355.214 387.357 356.32 387.623 357.736 387.357C359.152 387.003 360.435 386.472 361.585 385.764C367.336 382.224 371.76 377.71 374.857 372.223C377.953 366.647 379.458 360.85 379.369 354.831C379.281 353.238 379.015 351.733 378.573 350.317C378.13 348.813 377.511 347.485 376.715 346.335C375.918 345.184 374.901 344.255 373.662 343.547C372.424 342.839 370.964 342.529 369.283 342.617C365.301 342.529 361.452 343.635 357.736 345.936C354.108 348.237 350.923 350.937 348.18 354.035C345.083 357.486 342.385 361.159 340.084 365.054C337.784 368.948 335.837 372.975 334.245 377.135C332.652 381.206 331.325 385.366 330.263 389.614C329.201 393.774 328.361 397.889 327.741 401.961C327.476 405.147 327.387 408.289 327.476 411.386C327.653 414.396 328.14 417.228 328.936 419.883C329.821 422.538 331.104 424.928 332.785 427.052C334.554 429.176 336.899 430.858 339.819 432.097C343.623 433.07 347.207 433.07 350.569 432.097C354.02 431.035 357.205 429.442 360.125 427.318C363.133 425.193 365.876 422.759 368.353 420.016C370.831 417.272 372.999 414.661 374.857 412.183C374.326 415.281 373.22 418.246 371.539 421.078C369.946 423.822 367.955 426.344 365.566 428.645C363.266 430.946 360.656 432.938 357.736 434.619C354.905 436.389 351.985 437.717 348.976 438.602C346.057 439.576 343.137 440.062 340.217 440.062C337.297 440.151 334.643 439.664 332.254 438.602C328.007 437.097 324.645 434.531 322.167 430.902C319.69 427.185 317.964 423.158 316.991 418.821C315.31 410.767 315.443 402.403 317.389 393.73C319.336 384.967 322.521 376.515 326.945 368.373C328.626 365.186 330.573 362.133 332.785 359.212C335.085 356.203 337.607 353.459 340.35 350.981C343.093 348.414 346.012 346.158 349.109 344.21C352.294 342.175 355.612 340.537 359.063 339.298Z"/>
<path d="M397.129 384.038C400.579 383.419 403.322 383.374 405.357 383.905C407.392 384.436 408.896 385.41 409.87 386.826C410.843 388.242 411.374 390.012 411.462 392.136C411.551 394.172 411.374 396.429 410.931 398.907C410.578 400.943 410.179 403.377 409.737 406.209C409.295 409.041 408.631 412.006 407.746 415.104C406.861 418.113 405.667 421.122 404.163 424.131C402.659 427.141 400.712 429.796 398.323 432.097C396.377 433.867 394.165 435.062 391.687 435.681C389.298 436.301 386.998 436.345 384.786 435.814C382.574 435.372 380.716 434.442 379.212 433.026C377.707 431.61 376.911 429.751 376.823 427.45C376.292 423.468 376.513 418.998 377.486 414.042C378.459 408.997 379.831 404.35 381.6 400.102C383.105 396.119 385.007 392.712 387.307 389.88C389.608 387.047 392.882 385.1 397.129 384.038ZM396.863 388.817C395.89 389.968 395.138 391.074 394.607 392.136C394.165 393.198 393.855 394.261 393.678 395.323C393.501 396.296 393.457 397.314 393.545 398.376C393.634 399.438 393.722 400.589 393.811 401.828C392.926 402.005 392.13 401.961 391.422 401.695C390.714 401.341 390.095 400.943 389.564 400.5C388.413 404.926 387.396 409.439 386.511 414.042C385.626 418.644 385.317 423.025 385.582 427.185C385.936 429.486 386.909 430.814 388.502 431.168C390.095 431.522 391.776 430.858 393.545 429.176C394.695 427.849 395.713 426.078 396.598 423.866C397.483 421.565 398.279 419.042 398.987 416.299C399.695 413.555 400.314 410.767 400.845 407.935C401.376 405.103 401.818 402.492 402.172 400.102C402.349 398.686 402.482 397.226 402.57 395.721C402.747 394.216 402.659 392.933 402.305 391.871C402.039 390.72 401.464 389.88 400.579 389.348C399.783 388.729 398.544 388.552 396.863 388.817Z"/>
<path d="M418.814 395.455C419.256 393.597 419.787 391.738 420.406 389.88C421.114 388.021 421.999 386.339 423.061 384.835C424.211 383.242 425.582 381.87 427.175 380.719C428.768 379.569 430.758 378.816 433.147 378.462C435.713 378.197 437.748 378.595 439.253 379.657C440.757 380.631 441.774 381.958 442.305 383.64C442.836 385.233 442.88 387.047 442.438 389.083C442.084 391.119 441.332 393.021 440.182 394.792L433.944 393.066C434.298 392.269 434.652 391.384 435.006 390.411C435.448 389.437 435.758 388.463 435.935 387.49C436.2 386.516 436.288 385.631 436.2 384.835C436.2 383.95 435.935 383.286 435.404 382.843C434.43 382.224 433.413 382.357 432.351 383.242C431.378 384.038 430.714 384.879 430.36 385.764C428.856 389.216 427.794 392.712 427.175 396.252C426.556 399.792 425.848 403.288 425.052 406.74L434.342 406.607C434.519 407.315 434.386 408.289 433.944 409.528C433.59 410.678 433.103 411.696 432.484 412.581L424.123 412.714L418.416 436.611C417.885 438.735 417.177 440.77 416.292 442.718C415.407 444.665 414.301 446.435 412.974 448.028C411.647 449.621 410.054 450.949 408.196 452.011C406.338 453.073 404.17 453.781 401.693 454.135C399.835 454.312 398.331 454.091 397.181 453.471C395.942 452.852 395.057 451.966 394.526 450.816C393.907 449.754 393.641 448.515 393.73 447.099C393.73 445.683 394.084 444.178 394.792 442.585L403.418 437.54C402.976 438.425 402.534 439.531 402.091 440.859C401.56 442.275 401.206 443.603 401.029 444.842C400.852 446.169 400.941 447.276 401.295 448.161C401.649 449.134 402.445 449.621 403.684 449.621C404.657 449.71 405.498 449.179 406.205 448.028C406.825 446.966 407.4 445.594 407.931 443.912C408.373 442.319 408.771 440.638 409.125 438.868C409.479 437.097 409.833 435.593 410.187 434.354L418.814 395.455Z"/>
<path d="M446.032 395.455C446.474 393.597 447.005 391.738 447.624 389.88C448.332 388.021 449.217 386.339 450.279 384.835C451.429 383.242 452.8 381.87 454.393 380.719C455.986 379.569 457.976 378.816 460.365 378.462C462.931 378.197 464.966 378.595 466.47 379.657C467.975 380.631 468.992 381.958 469.523 383.64C470.054 385.233 470.098 387.047 469.656 389.083C469.302 391.119 468.55 393.021 467.399 394.792L461.162 393.066C461.516 392.269 461.869 391.384 462.223 390.411C462.666 389.437 462.975 388.463 463.152 387.49C463.418 386.516 463.506 385.631 463.418 384.835C463.418 383.95 463.152 383.286 462.621 382.843C461.648 382.224 460.631 382.357 459.569 383.242C458.596 384.038 457.932 384.879 457.578 385.764C456.074 389.216 455.012 392.712 454.393 396.252C453.774 399.792 453.066 403.288 452.269 406.74L461.56 406.607C461.737 407.315 461.604 408.289 461.162 409.528C460.808 410.678 460.321 411.696 459.702 412.581L451.34 412.714L445.633 436.611C445.103 438.735 444.395 440.77 443.51 442.718C442.625 444.665 441.519 446.435 440.192 448.028C438.865 449.621 437.272 450.949 435.414 452.011C433.556 453.073 431.388 453.781 428.911 454.135C427.053 454.312 425.549 454.091 424.398 453.471C423.16 452.852 422.275 451.966 421.744 450.816C421.125 449.754 420.859 448.515 420.948 447.099C420.948 445.683 421.302 444.178 422.009 442.585L430.636 437.54C430.194 438.425 429.751 439.531 429.309 440.859C428.778 442.275 428.424 443.603 428.247 444.842C428.07 446.169 428.159 447.276 428.513 448.161C428.867 449.134 429.663 449.621 430.902 449.621C431.875 449.71 432.715 449.179 433.423 448.028C434.043 446.966 434.618 445.594 435.149 443.912C435.591 442.319 435.989 440.638 436.343 438.868C436.697 437.097 437.051 435.593 437.405 434.354L446.032 395.455Z"/>
<path d="M477.666 386.959C479.348 385.366 481.117 384.171 482.975 383.374C484.922 382.489 486.736 382.091 488.417 382.179C490.186 382.268 491.735 382.755 493.062 383.64C494.389 384.525 495.274 385.897 495.716 387.755C496.424 390.588 496.38 393.774 495.584 397.314C494.876 400.766 493.593 404.085 491.735 407.271C489.877 410.369 487.532 413.024 484.701 415.236C481.869 417.361 478.728 418.511 475.278 418.688C475.189 419.75 475.189 420.989 475.278 422.405C475.366 423.822 475.631 425.061 476.074 426.123C476.605 427.185 477.357 427.981 478.33 428.512C479.303 429.043 480.586 428.999 482.179 428.38C484.479 427.318 486.736 425.769 488.948 423.733C491.16 421.697 493.195 419.485 495.053 417.095C496.911 414.705 498.592 412.316 500.096 409.926C501.689 407.448 502.972 405.28 503.945 403.421L507.794 403.554C506.82 406.209 505.316 409.13 503.281 412.316C501.335 415.413 499.167 418.423 496.778 421.343C494.389 424.264 491.867 426.875 489.213 429.176C486.647 431.389 484.258 432.938 482.046 433.823C480.277 434.708 478.463 435.15 476.605 435.15C474.747 435.239 473.021 434.929 471.429 434.221C469.924 433.513 468.642 432.451 467.58 431.035C466.518 429.619 465.854 427.849 465.589 425.724C465.235 423.689 465.235 420.945 465.589 417.493C466.031 413.953 466.739 410.324 467.713 406.607C468.774 402.801 470.146 399.128 471.827 395.588C473.508 391.959 475.454 389.083 477.666 386.959ZM476.074 413.511C478.109 413.334 479.878 412.758 481.383 411.785C482.975 410.723 484.347 409.439 485.497 407.935C486.647 406.43 487.576 404.793 488.284 403.023C488.992 401.253 489.567 399.571 490.009 397.978C490.275 397.004 490.496 395.898 490.673 394.659C490.938 393.42 491.027 392.269 490.938 391.207C490.85 390.057 490.584 389.127 490.142 388.419C489.788 387.623 489.08 387.224 488.019 387.224C486.603 387.401 485.231 388.463 483.904 390.411C482.577 392.358 481.338 394.659 480.188 397.314C479.126 399.969 478.197 402.801 477.401 405.811C476.693 408.731 476.251 411.298 476.074 413.511Z"/>
<path d="M508.902 386.959C510.583 385.366 512.353 384.171 514.211 383.374C516.157 382.489 517.971 382.091 519.652 382.179C521.422 382.268 522.97 382.755 524.298 383.64C525.625 384.525 526.51 385.897 526.952 387.755C527.66 390.588 527.616 393.774 526.819 397.314C526.111 400.766 524.828 404.085 522.97 407.271C521.112 410.369 518.768 413.024 515.936 415.236C513.105 417.361 509.964 418.511 506.513 418.688C506.425 419.75 506.425 420.989 506.513 422.405C506.602 423.822 506.867 425.061 507.309 426.123C507.84 427.185 508.592 427.981 509.566 428.512C510.539 429.043 511.822 428.999 513.415 428.38C515.715 427.318 517.971 425.769 520.183 423.733C522.395 421.697 524.43 419.485 526.288 417.095C528.146 414.705 529.828 412.316 531.332 409.926C532.924 407.448 534.207 405.28 535.181 403.421L539.029 403.554C538.056 406.209 536.552 409.13 534.517 412.316C532.57 415.413 530.403 418.423 528.014 421.343C525.625 424.264 523.103 426.875 520.449 429.176C517.883 431.389 515.494 432.938 513.282 433.823C511.512 434.708 509.698 435.15 507.84 435.15C505.982 435.239 504.257 434.929 502.664 434.221C501.16 433.513 499.877 432.451 498.816 431.035C497.754 429.619 497.09 427.849 496.825 425.724C496.471 423.689 496.471 420.945 496.825 417.493C497.267 413.953 497.975 410.324 498.948 406.607C500.01 402.801 501.381 399.128 503.063 395.588C504.744 391.959 506.69 389.083 508.902 386.959ZM507.309 413.511C509.345 413.334 511.114 412.758 512.618 411.785C514.211 410.723 515.582 409.439 516.733 407.935C517.883 406.43 518.812 404.793 519.52 403.023C520.228 401.253 520.803 399.571 521.245 397.978C521.51 397.004 521.732 395.898 521.909 394.659C522.174 393.42 522.263 392.269 522.174 391.207C522.086 390.057 521.82 389.127 521.378 388.419C521.024 387.623 520.316 387.224 519.254 387.224C517.839 387.401 516.467 388.463 515.14 390.411C513.813 392.358 512.574 394.659 511.424 397.314C510.362 399.969 509.433 402.801 508.637 405.811C507.929 408.731 507.486 411.298 507.309 413.511Z"/>
</mask>
<path d="M24.7246 342.617C28.5292 339.608 32.6877 337.484 37.2002 336.245C41.8011 335.006 46.1366 334.652 50.2067 335.183C54.3652 335.714 58.0371 337.174 61.2224 339.564C64.4076 341.865 66.5312 345.14 67.5929 349.388C68.3007 353.017 68.0353 356.734 66.7966 360.54C65.6463 364.346 63.8325 367.842 61.3551 371.028C58.8777 374.125 55.8694 376.692 52.3302 378.728C48.791 380.675 45.0748 381.56 41.1818 381.383C40.5624 381.117 39.9873 380.675 39.4564 380.055C38.9255 379.347 38.4831 378.595 38.1292 377.798C37.7753 377.002 37.5099 376.205 37.3329 375.409C37.1559 374.524 37.0675 373.771 37.0675 373.152C40.6951 373.152 44.0573 372.444 47.1541 371.028C50.2509 369.523 52.9053 367.62 55.1173 365.319C57.3293 363.018 58.9219 360.451 59.8952 357.619C60.9569 354.787 61.2224 351.955 60.6915 349.123C59.8067 346.467 58.2141 344.476 55.9136 343.148C53.6131 341.732 50.9588 340.98 47.9504 340.891C45.0306 340.714 41.9338 341.113 38.6601 342.086C35.4748 343.06 32.555 344.564 29.9006 346.6C27.1578 348.636 24.9015 350.981 23.1319 353.636C21.3623 356.291 20.0352 359.035 19.1504 361.867C18.2656 364.611 17.7789 367.31 17.6904 369.966C17.6904 372.621 18.0444 374.966 18.7522 377.002C19.3716 379.038 20.2121 380.896 21.2739 382.578C22.3356 384.171 23.5301 385.72 24.8573 387.224C26.1845 388.64 27.5559 390.012 28.9716 391.34C30.4757 392.667 31.9357 393.995 33.3513 395.323C35.1209 397.004 36.802 398.774 38.3947 400.633C39.9873 402.492 41.3145 404.483 42.3762 406.607C43.5265 408.731 44.3228 411.032 44.7652 413.511C45.2961 415.989 45.4288 418.644 45.1633 421.476C44.4555 425.016 43.261 428.203 41.5799 431.035C39.9873 433.778 38.085 436.124 35.873 438.071C33.661 440.018 31.2278 441.523 28.5734 442.585C25.919 443.647 23.1762 444.178 20.3448 444.178C18.0444 444.178 15.7881 443.824 13.5761 443.116C11.4526 442.408 9.55033 441.39 7.86922 440.062C6.18811 438.823 4.81667 437.23 3.75492 435.283C2.69317 433.424 2.11805 431.3 2.02957 428.911C1.85261 427.583 2.07381 426.123 2.69316 424.53C3.31252 422.848 4.15307 421.388 5.21483 420.149C6.36506 418.821 7.64802 417.847 9.06369 417.228C10.4794 416.608 11.9393 416.564 13.4434 417.095C12.2047 417.715 10.8775 418.555 9.46185 419.618C8.13465 420.591 7.38258 421.963 7.20562 423.733C6.49779 426.742 6.80746 429.353 8.13466 431.566C9.46185 433.778 11.2757 435.416 13.5761 436.478C15.8766 437.54 18.4425 437.894 21.2739 437.54C24.1937 437.274 26.8923 436.124 29.3697 434.088C30.9624 433.026 32.2011 431.743 33.0859 430.238C33.9707 428.734 34.5458 427.185 34.8112 425.592C35.1652 423.999 35.2536 422.405 35.0767 420.812C34.8997 419.219 34.59 417.715 34.1476 416.299C32.9089 412.581 31.0509 409.484 28.5734 407.005C26.1845 404.527 23.6186 402.182 20.8757 399.969C18.2213 397.668 15.6997 395.234 13.3107 392.667C10.9218 390.012 9.15217 386.693 8.00194 382.711C7.11714 379.436 6.85171 375.94 7.20562 372.223C7.55954 368.505 8.44433 364.832 9.86001 361.204C11.3642 357.575 13.355 354.167 15.8324 350.981C18.3098 347.706 21.2739 344.918 24.7246 342.617Z" fill="#D6A17C"/>
<path d="M84.4057 346.069C85.7329 345.45 87.1044 345.14 88.52 345.14C89.9357 345.051 91.2187 345.272 92.3689 345.804C93.5191 346.246 94.4482 346.998 95.156 348.06C95.8638 349.123 96.2178 350.362 96.2178 351.778C96.3947 354.698 95.8196 357.708 94.4924 360.805C93.1652 363.814 91.3956 366.779 89.1836 369.7C87.0601 372.532 84.6712 375.188 82.0168 377.666C79.3624 380.144 76.7965 382.179 74.3191 383.773L72.1956 392.004C73.2573 390.499 74.5845 389.171 76.1771 388.021C77.8583 386.782 79.5394 385.941 81.2205 385.498C82.9901 384.967 84.5827 384.923 85.9984 385.366C87.5025 385.808 88.6085 386.915 89.3163 388.685C89.7587 390.012 89.8915 391.827 89.7145 394.128C89.626 396.34 89.2721 398.819 88.6528 401.562C88.1219 404.217 87.4583 407.005 86.662 409.926C85.9541 412.847 85.2463 415.679 84.5385 418.423C83.9191 421.166 83.3882 423.733 82.9458 426.123C82.5919 428.424 82.4592 430.282 82.5477 431.699C84.8481 430.725 87.1486 428.911 89.4491 426.255C91.838 423.512 94.0058 420.635 95.9523 417.626C97.9873 414.528 99.7127 411.608 101.128 408.864C102.544 406.032 103.517 404.04 104.048 402.89L107.366 403.288C106.216 406.651 104.8 409.926 103.119 413.112C101.527 416.299 99.8454 419.263 98.0758 422.007C96.3062 424.662 94.5809 427.008 92.8998 429.043C91.2187 430.991 89.7145 432.407 88.3873 433.292C86.7947 434.531 85.1578 435.416 83.4767 435.947C81.8841 436.566 80.3799 436.788 78.9642 436.611C77.6371 436.522 76.4868 436.08 75.5135 435.283C74.6287 434.487 74.1421 433.336 74.0536 431.831C73.9651 429.619 74.0979 427.141 74.4518 424.397C74.8942 421.653 75.4251 418.865 76.0444 416.033C76.6638 413.112 77.3274 410.28 78.0352 407.536C78.743 404.704 79.3624 402.182 79.8933 399.969C80.4242 397.668 80.7781 395.765 80.955 394.261C81.2205 392.667 81.2205 391.694 80.955 391.34C79.8933 391.251 78.8758 391.473 77.9025 392.004C76.9292 392.535 75.9559 393.243 74.9827 394.128C74.0979 395.013 73.2573 395.986 72.461 397.048C71.6647 398.111 70.9126 399.084 70.2048 399.969L62.3743 432.097C62.1089 433.07 61.5338 433.778 60.649 434.221C59.8527 434.575 58.9236 434.796 57.8619 434.885C56.8886 435.062 55.9153 435.106 54.9421 435.018C53.8803 434.929 53.0397 434.885 52.4204 434.885C53.5706 429.574 54.7209 424.53 55.8711 419.75C57.0213 414.971 58.1273 410.236 59.1891 405.545C60.3393 400.854 61.4453 396.119 62.507 391.34C63.6573 386.561 64.8518 381.516 66.0905 376.205C66.7098 373.993 67.5504 371.382 68.6121 368.373C69.6739 365.363 70.9568 362.443 72.461 359.61C73.9652 356.69 75.6905 354.035 77.6371 351.645C79.6721 349.167 81.9283 347.308 84.4057 346.069ZM84.6712 351.91C83.6094 353.415 82.6362 355.274 81.7514 357.486C80.8666 359.61 80.026 361.867 79.2297 364.257C78.5218 366.558 77.9025 368.859 77.3716 371.16C76.8407 373.373 76.3541 375.32 75.9117 377.002C77.8583 375.497 79.7163 373.771 81.4859 371.824C83.344 369.877 84.9809 367.842 86.3965 365.717C87.9007 363.593 89.1394 361.469 90.1127 359.345C91.0859 357.132 91.7053 355.052 91.9707 353.105C92.1477 351.866 91.9707 350.981 91.4399 350.45C90.909 349.831 90.2454 349.521 89.4491 349.521C88.6528 349.432 87.8122 349.609 86.9274 350.052C86.0426 350.494 85.2905 351.114 84.6712 351.91Z" fill="#D6A17C"/>
<path d="M118.47 384.038C121.921 383.419 124.664 383.374 126.699 383.905C128.734 384.436 130.238 385.41 131.211 386.826C132.184 388.242 132.715 390.012 132.804 392.136C132.892 394.172 132.715 396.429 132.273 398.907C131.919 400.943 131.521 403.377 131.078 406.209C130.636 409.041 129.972 412.006 129.088 415.104C128.203 418.113 127.008 421.122 125.504 424.131C124 427.141 122.053 429.796 119.664 432.097C117.718 433.867 115.506 435.062 113.029 435.681C110.64 436.301 108.339 436.345 106.127 435.814C103.915 435.372 102.057 434.442 100.553 433.026C99.0488 431.61 98.2524 429.751 98.164 427.45C97.6331 423.468 97.8543 418.998 98.8276 414.042C99.8008 408.997 101.172 404.35 102.942 400.102C104.446 396.119 106.348 392.712 108.649 389.88C110.949 387.047 114.223 385.1 118.47 384.038ZM118.205 388.817C117.231 389.968 116.479 391.074 115.948 392.136C115.506 393.198 115.196 394.261 115.019 395.323C114.842 396.296 114.798 397.314 114.887 398.376C114.975 399.438 115.064 400.589 115.152 401.828C114.267 402.005 113.471 401.961 112.763 401.695C112.055 401.341 111.436 400.943 110.905 400.5C109.755 404.926 108.737 409.439 107.852 414.042C106.968 418.644 106.658 423.025 106.923 427.185C107.277 429.486 108.251 430.814 109.843 431.168C111.436 431.522 113.117 430.858 114.887 429.176C116.037 427.849 117.054 426.078 117.939 423.866C118.824 421.565 119.62 419.042 120.328 416.299C121.036 413.555 121.655 410.767 122.186 407.935C122.717 405.103 123.159 402.492 123.513 400.102C123.69 398.686 123.823 397.226 123.912 395.721C124.088 394.216 124 392.933 123.646 391.871C123.381 390.72 122.806 389.88 121.921 389.348C121.124 388.729 119.886 388.552 118.205 388.817Z" fill="#D6A17C"/>
<path d="M138.297 406.74C137.501 406.209 136.97 405.28 136.704 403.952C136.439 402.536 136.35 400.943 136.439 399.173C136.616 397.314 136.97 395.367 137.501 393.331C138.032 391.296 138.695 389.393 139.491 387.623C140.288 385.852 141.173 384.348 142.146 383.109C143.208 381.781 144.314 380.896 145.464 380.454C146.968 379.923 147.897 380.232 148.251 381.383C148.605 382.534 148.561 384.127 148.118 386.162C147.676 388.198 146.968 390.499 145.995 393.066C145.021 395.544 144.004 397.845 142.942 399.969C145.951 397.668 148.339 395.146 150.109 392.402C151.967 389.658 153.339 387.313 154.223 385.366C154.754 384.923 155.551 384.746 156.612 384.835C157.763 384.923 158.868 385.189 159.93 385.631C161.08 385.985 162.01 386.472 162.717 387.092C163.514 387.711 163.868 388.331 163.779 388.95C161.479 394.703 159.311 400.589 157.276 406.607C155.329 412.537 153.781 418.467 152.631 424.397C152.454 425.813 152.365 427.141 152.365 428.38C152.454 429.53 152.852 430.238 153.56 430.504C154.445 430.15 155.772 428.911 157.541 426.787C159.399 424.662 161.346 422.14 163.381 419.219C165.504 416.299 167.584 413.201 169.619 409.926C171.742 406.651 173.468 403.686 174.795 401.031C175.237 401.031 175.901 401.076 176.786 401.164C177.67 401.253 178.334 401.253 178.776 401.164C177.361 403.996 175.68 407.094 173.733 410.457C171.875 413.82 169.884 417.095 167.761 420.281C165.726 423.379 163.646 426.211 161.523 428.778C159.488 431.345 157.541 433.203 155.683 434.354C154.179 435.239 152.675 435.681 151.171 435.681C149.667 435.77 148.295 435.504 147.056 434.885C145.906 434.354 144.977 433.469 144.269 432.23C143.65 430.991 143.429 429.486 143.606 427.716C143.96 423.202 144.977 418.113 146.658 412.449C148.428 406.696 150.33 401.12 152.365 395.721C151.834 396.694 150.994 397.934 149.844 399.438C148.693 400.943 147.41 402.315 145.995 403.554C144.579 404.793 143.163 405.766 141.748 406.474C140.421 407.182 139.27 407.271 138.297 406.74Z" fill="#D6A17C"/>
<path d="M182.888 350.583C183.418 349.875 184.082 349.344 184.878 348.99C185.763 348.636 186.648 348.37 187.533 348.193C188.506 348.016 189.391 347.972 190.187 348.06C190.983 348.06 191.603 348.105 192.045 348.193L187.931 367.31L199.477 367.178C199.389 369.036 198.858 370.364 197.885 371.16C196.912 371.957 195.761 372.488 194.434 372.754C193.107 372.931 191.691 372.975 190.187 372.886C188.771 372.709 187.577 372.621 186.604 372.621L174.924 427.185C176.606 426.211 178.375 424.751 180.233 422.804C182.091 420.857 183.905 418.732 185.675 416.431C187.444 414.13 189.081 411.829 190.585 409.528C192.178 407.138 193.505 405.014 194.567 403.155C195.009 403.155 195.717 403.111 196.69 403.023C197.752 402.934 198.504 402.846 198.947 402.757C197.973 404.881 196.602 407.404 194.832 410.324C193.063 413.157 191.072 416.077 188.86 419.086C186.736 422.007 184.524 424.795 182.224 427.45C180.012 430.017 177.977 432.008 176.119 433.424C174.792 434.575 173.465 435.327 172.137 435.681C170.81 436.035 169.616 436.08 168.554 435.814C167.492 435.549 166.696 434.973 166.165 434.088C165.634 433.115 165.501 431.92 165.767 430.504C167.359 420.857 169.217 411.209 171.341 401.562C173.553 391.915 175.632 382.224 177.579 372.488C176.871 372.4 175.986 372.355 174.924 372.355C173.951 372.355 172.978 372.355 172.005 372.355C171.12 372.267 170.323 372.134 169.616 371.957C168.996 371.692 168.687 371.205 168.687 370.497C168.775 369.789 169.262 369.258 170.147 368.904C171.031 368.55 172.005 368.328 173.066 368.24C174.128 368.063 175.19 368.019 176.252 368.107C177.313 368.107 178.065 368.107 178.508 368.107C178.862 366.514 179.26 364.877 179.702 363.195C180.145 361.513 180.543 359.876 180.897 358.283C181.251 356.69 181.605 355.229 181.959 353.902C182.312 352.486 182.622 351.379 182.888 350.583Z" fill="#D6A17C"/>
<path d="M198.878 386.959C200.559 385.366 202.329 384.171 204.187 383.374C206.134 382.489 207.947 382.091 209.628 382.179C211.398 382.268 212.946 382.755 214.274 383.64C215.601 384.525 216.486 385.897 216.928 387.755C217.636 390.588 217.592 393.774 216.795 397.314C216.087 400.766 214.805 404.085 212.946 407.271C211.088 410.369 208.744 413.024 205.912 415.236C203.081 417.361 199.94 418.511 196.489 418.688C196.401 419.75 196.401 420.989 196.489 422.405C196.578 423.822 196.843 425.061 197.286 426.123C197.816 427.185 198.569 427.981 199.542 428.512C200.515 429.043 201.798 428.999 203.391 428.38C205.691 427.318 207.947 425.769 210.159 423.733C212.371 421.697 214.406 419.485 216.264 417.095C218.122 414.705 219.804 412.316 221.308 409.926C222.9 407.448 224.183 405.28 225.157 403.421L229.005 403.554C228.032 406.209 226.528 409.13 224.493 412.316C222.546 415.413 220.379 418.423 217.99 421.343C215.601 424.264 213.079 426.875 210.425 429.176C207.859 431.389 205.47 432.938 203.258 433.823C201.488 434.708 199.674 435.15 197.816 435.15C195.958 435.239 194.233 434.929 192.64 434.221C191.136 433.513 189.853 432.451 188.792 431.035C187.73 429.619 187.066 427.849 186.801 425.724C186.447 423.689 186.447 420.945 186.801 417.493C187.243 413.953 187.951 410.324 188.924 406.607C189.986 402.801 191.357 399.128 193.039 395.588C194.72 391.959 196.666 389.083 198.878 386.959ZM197.286 413.511C199.321 413.334 201.09 412.758 202.594 411.785C204.187 410.723 205.558 409.439 206.709 407.935C207.859 406.43 208.788 404.793 209.496 403.023C210.204 401.253 210.779 399.571 211.221 397.978C211.487 397.004 211.708 395.898 211.885 394.659C212.15 393.42 212.239 392.269 212.15 391.207C212.062 390.057 211.796 389.127 211.354 388.419C211 387.623 210.292 387.224 209.23 387.224C207.815 387.401 206.443 388.463 205.116 390.411C203.789 392.358 202.55 394.659 201.4 397.314C200.338 399.969 199.409 402.801 198.613 405.811C197.905 408.731 197.463 411.298 197.286 413.511Z" fill="#D6A17C"/>
<path d="M225.336 386.693C226.929 385.808 228.698 385.366 230.645 385.366C232.68 385.366 233.963 385.852 234.494 386.826L233.299 392.136C234.892 390.632 236.706 389.171 238.741 387.755C240.864 386.339 242.988 385.454 245.111 385.1C246.881 384.835 248.252 384.967 249.225 385.498C250.287 386.029 251.084 386.782 251.614 387.755C252.145 388.729 252.411 389.88 252.411 391.207C252.499 392.446 252.499 393.641 252.411 394.792C251.703 400.633 250.597 406.43 249.093 412.183C247.677 417.847 246.527 423.6 245.642 429.442C246.704 428.822 247.81 427.804 248.96 426.388C250.199 424.884 251.393 423.158 252.543 421.211C253.782 419.263 254.977 417.272 256.127 415.236C257.277 413.112 258.295 411.077 259.179 409.13C260.153 407.182 260.993 405.501 261.701 404.085C262.409 402.58 262.94 401.518 263.294 400.899L267.275 401.031C266.037 403.332 264.577 406.12 262.896 409.395C261.303 412.67 259.622 415.9 257.852 419.086C256.171 422.273 254.49 425.149 252.809 427.716C251.216 430.282 249.801 432.008 248.562 432.893C247.589 433.69 246.438 434.31 245.111 434.752C243.784 435.195 242.501 435.416 241.262 435.416C240.024 435.504 238.962 435.327 238.077 434.885C237.281 434.442 236.883 433.646 236.883 432.495C236.794 430.282 236.927 427.716 237.281 424.795C237.723 421.786 238.254 418.777 238.873 415.768C239.581 412.67 240.289 409.661 240.997 406.74C241.705 403.731 242.236 401.076 242.589 398.774C243.032 396.473 243.253 394.659 243.253 393.331C243.342 392.004 243.032 391.428 242.324 391.605C240.554 392.313 238.519 393.685 236.219 395.721C234.007 397.757 232.237 400.5 230.91 403.952C230.025 406.607 229.229 409.528 228.521 412.714C227.813 415.9 227.15 418.954 226.53 421.874C225.911 424.795 225.38 427.406 224.938 429.707C224.495 431.92 224.141 433.424 223.876 434.221C222.549 434.752 221.045 434.973 219.364 434.885C217.771 434.796 216.355 434.708 215.117 434.619L225.336 386.693Z" fill="#D6A17C"/>
<path d="M261.851 398.111C261.763 395.721 262.161 393.375 263.046 391.074C263.931 388.773 265.125 386.782 266.629 385.1C268.222 383.33 270.036 381.958 272.071 380.985C274.194 379.923 276.406 379.392 278.707 379.392C281.892 379.392 284.193 380.277 285.608 382.047C287.112 383.728 287.864 385.72 287.864 388.021C287.864 390.234 287.245 392.402 286.006 394.526C284.768 396.562 283.042 397.889 280.83 398.509C279.415 398.951 278.22 398.951 277.247 398.509C276.274 398.066 275.522 397.358 274.991 396.385C274.548 395.411 274.327 394.261 274.327 392.933C274.327 391.605 274.548 390.322 274.991 389.083L280.034 388.95C279.769 390.543 279.724 392.048 279.901 393.464C280.078 394.792 280.521 395.411 281.228 395.323C281.759 394.615 282.202 393.73 282.556 392.667C282.998 391.517 283.175 390.411 283.087 389.348C283.087 388.198 282.821 387.136 282.29 386.162C281.759 385.189 280.83 384.525 279.503 384.171C278.618 383.994 277.689 384.038 276.716 384.304C275.831 384.569 274.991 385.012 274.194 385.631C273.398 386.251 272.69 387.047 272.071 388.021C271.54 388.994 271.23 390.057 271.142 391.207C270.965 392.8 271.053 394.393 271.407 395.986C271.85 397.491 272.425 398.951 273.133 400.367C273.84 401.784 274.637 403.2 275.522 404.616C276.406 405.943 277.247 407.271 278.043 408.599C279.724 411.431 280.786 414.528 281.228 417.892C281.759 421.166 280.919 424.884 278.707 429.043C277.38 431.256 275.566 432.893 273.265 433.955C271.053 435.018 268.753 435.637 266.364 435.814C264.063 435.991 261.896 435.726 259.861 435.018C257.826 434.398 256.366 433.469 255.481 432.23C254.242 430.371 254.109 428.114 255.083 425.459C255.968 422.804 257.693 420.458 260.259 418.423L267.027 421.476C265.789 422.096 264.639 422.892 263.577 423.866C262.603 424.751 261.851 425.68 261.321 426.654C260.878 427.539 260.701 428.38 260.79 429.176C260.967 429.884 261.586 430.327 262.648 430.504C265.214 430.769 267.426 430.061 269.284 428.38C271.142 426.698 271.938 424.574 271.673 422.007C271.407 419.883 270.744 417.847 269.682 415.9C268.709 413.953 267.647 412.05 266.497 410.192C265.346 408.245 264.285 406.297 263.311 404.35C262.427 402.403 261.94 400.323 261.851 398.111Z" fill="#D6A17C"/>
<path d="M359.063 339.298C361.806 338.325 364.593 337.794 367.424 337.705C370.256 337.617 372.91 338.015 375.388 338.9C377.865 339.697 379.989 340.98 381.758 342.75C383.616 344.52 384.899 346.777 385.607 349.521C386.757 353.681 386.757 358.15 385.607 362.929C384.545 367.62 382.599 372.134 379.767 376.471C377.024 380.719 373.574 384.525 369.415 387.888C365.257 391.251 360.744 393.641 355.878 395.057C352.781 396.031 350.392 396.163 348.711 395.455C347.03 394.747 345.88 393.641 345.26 392.136C344.641 390.543 344.508 388.773 344.862 386.826C345.216 384.79 345.88 382.888 346.853 381.117C348.357 379.967 349.95 379.082 351.631 378.462C353.4 377.843 355.126 377.179 356.807 376.471C356.188 378.064 355.435 379.79 354.551 381.648C353.754 383.419 353.71 385.056 354.418 386.561C355.214 387.357 356.32 387.623 357.736 387.357C359.152 387.003 360.435 386.472 361.585 385.764C367.336 382.224 371.76 377.71 374.857 372.223C377.953 366.647 379.458 360.85 379.369 354.831C379.281 353.238 379.015 351.733 378.573 350.317C378.13 348.813 377.511 347.485 376.715 346.335C375.918 345.184 374.901 344.255 373.662 343.547C372.424 342.839 370.964 342.529 369.283 342.617C365.301 342.529 361.452 343.635 357.736 345.936C354.108 348.237 350.923 350.937 348.18 354.035C345.083 357.486 342.385 361.159 340.084 365.054C337.784 368.948 335.837 372.975 334.245 377.135C332.652 381.206 331.325 385.366 330.263 389.614C329.201 393.774 328.361 397.889 327.741 401.961C327.476 405.147 327.387 408.289 327.476 411.386C327.653 414.396 328.14 417.228 328.936 419.883C329.821 422.538 331.104 424.928 332.785 427.052C334.554 429.176 336.899 430.858 339.819 432.097C343.623 433.07 347.207 433.07 350.569 432.097C354.02 431.035 357.205 429.442 360.125 427.318C363.133 425.193 365.876 422.759 368.353 420.016C370.831 417.272 372.999 414.661 374.857 412.183C374.326 415.281 373.22 418.246 371.539 421.078C369.946 423.822 367.955 426.344 365.566 428.645C363.266 430.946 360.656 432.938 357.736 434.619C354.905 436.389 351.985 437.717 348.976 438.602C346.057 439.576 343.137 440.062 340.217 440.062C337.297 440.151 334.643 439.664 332.254 438.602C328.007 437.097 324.645 434.531 322.167 430.902C319.69 427.185 317.964 423.158 316.991 418.821C315.31 410.767 315.443 402.403 317.389 393.73C319.336 384.967 322.521 376.515 326.945 368.373C328.626 365.186 330.573 362.133 332.785 359.212C335.085 356.203 337.607 353.459 340.35 350.981C343.093 348.414 346.012 346.158 349.109 344.21C352.294 342.175 355.612 340.537 359.063 339.298Z" fill="#D6A17C"/>
<path d="M397.129 384.038C400.579 383.419 403.322 383.374 405.357 383.905C407.392 384.436 408.896 385.41 409.87 386.826C410.843 388.242 411.374 390.012 411.462 392.136C411.551 394.172 411.374 396.429 410.931 398.907C410.578 400.943 410.179 403.377 409.737 406.209C409.295 409.041 408.631 412.006 407.746 415.104C406.861 418.113 405.667 421.122 404.163 424.131C402.659 427.141 400.712 429.796 398.323 432.097C396.377 433.867 394.165 435.062 391.687 435.681C389.298 436.301 386.998 436.345 384.786 435.814C382.574 435.372 380.716 434.442 379.212 433.026C377.707 431.61 376.911 429.751 376.823 427.45C376.292 423.468 376.513 418.998 377.486 414.042C378.459 408.997 379.831 404.35 381.6 400.102C383.105 396.119 385.007 392.712 387.307 389.88C389.608 387.047 392.882 385.1 397.129 384.038ZM396.863 388.817C395.89 389.968 395.138 391.074 394.607 392.136C394.165 393.198 393.855 394.261 393.678 395.323C393.501 396.296 393.457 397.314 393.545 398.376C393.634 399.438 393.722 400.589 393.811 401.828C392.926 402.005 392.13 401.961 391.422 401.695C390.714 401.341 390.095 400.943 389.564 400.5C388.413 404.926 387.396 409.439 386.511 414.042C385.626 418.644 385.317 423.025 385.582 427.185C385.936 429.486 386.909 430.814 388.502 431.168C390.095 431.522 391.776 430.858 393.545 429.176C394.695 427.849 395.713 426.078 396.598 423.866C397.483 421.565 398.279 419.042 398.987 416.299C399.695 413.555 400.314 410.767 400.845 407.935C401.376 405.103 401.818 402.492 402.172 400.102C402.349 398.686 402.482 397.226 402.57 395.721C402.747 394.216 402.659 392.933 402.305 391.871C402.039 390.72 401.464 389.88 400.579 389.348C399.783 388.729 398.544 388.552 396.863 388.817Z" fill="#D6A17C"/>
<path d="M418.814 395.455C419.256 393.597 419.787 391.738 420.406 389.88C421.114 388.021 421.999 386.339 423.061 384.835C424.211 383.242 425.582 381.87 427.175 380.719C428.768 379.569 430.758 378.816 433.147 378.462C435.713 378.197 437.748 378.595 439.253 379.657C440.757 380.631 441.774 381.958 442.305 383.64C442.836 385.233 442.88 387.047 442.438 389.083C442.084 391.119 441.332 393.021 440.182 394.792L433.944 393.066C434.298 392.269 434.652 391.384 435.006 390.411C435.448 389.437 435.758 388.463 435.935 387.49C436.2 386.516 436.288 385.631 436.2 384.835C436.2 383.95 435.935 383.286 435.404 382.843C434.43 382.224 433.413 382.357 432.351 383.242C431.378 384.038 430.714 384.879 430.36 385.764C428.856 389.216 427.794 392.712 427.175 396.252C426.556 399.792 425.848 403.288 425.052 406.74L434.342 406.607C434.519 407.315 434.386 408.289 433.944 409.528C433.59 410.678 433.103 411.696 432.484 412.581L424.123 412.714L418.416 436.611C417.885 438.735 417.177 440.77 416.292 442.718C415.407 444.665 414.301 446.435 412.974 448.028C411.647 449.621 410.054 450.949 408.196 452.011C406.338 453.073 404.17 453.781 401.693 454.135C399.835 454.312 398.331 454.091 397.181 453.471C395.942 452.852 395.057 451.966 394.526 450.816C393.907 449.754 393.641 448.515 393.73 447.099C393.73 445.683 394.084 444.178 394.792 442.585L403.418 437.54C402.976 438.425 402.534 439.531 402.091 440.859C401.56 442.275 401.206 443.603 401.029 444.842C400.852 446.169 400.941 447.276 401.295 448.161C401.649 449.134 402.445 449.621 403.684 449.621C404.657 449.71 405.498 449.179 406.205 448.028C406.825 446.966 407.4 445.594 407.931 443.912C408.373 442.319 408.771 440.638 409.125 438.868C409.479 437.097 409.833 435.593 410.187 434.354L418.814 395.455Z" fill="#D6A17C"/>
<path d="M446.032 395.455C446.474 393.597 447.005 391.738 447.624 389.88C448.332 388.021 449.217 386.339 450.279 384.835C451.429 383.242 452.8 381.87 454.393 380.719C455.986 379.569 457.976 378.816 460.365 378.462C462.931 378.197 464.966 378.595 466.47 379.657C467.975 380.631 468.992 381.958 469.523 383.64C470.054 385.233 470.098 387.047 469.656 389.083C469.302 391.119 468.55 393.021 467.399 394.792L461.162 393.066C461.516 392.269 461.869 391.384 462.223 390.411C462.666 389.437 462.975 388.463 463.152 387.49C463.418 386.516 463.506 385.631 463.418 384.835C463.418 383.95 463.152 383.286 462.621 382.843C461.648 382.224 460.631 382.357 459.569 383.242C458.596 384.038 457.932 384.879 457.578 385.764C456.074 389.216 455.012 392.712 454.393 396.252C453.774 399.792 453.066 403.288 452.269 406.74L461.56 406.607C461.737 407.315 461.604 408.289 461.162 409.528C460.808 410.678 460.321 411.696 459.702 412.581L451.34 412.714L445.633 436.611C445.103 438.735 444.395 440.77 443.51 442.718C442.625 444.665 441.519 446.435 440.192 448.028C438.865 449.621 437.272 450.949 435.414 452.011C433.556 453.073 431.388 453.781 428.911 454.135C427.053 454.312 425.549 454.091 424.398 453.471C423.16 452.852 422.275 451.966 421.744 450.816C421.125 449.754 420.859 448.515 420.948 447.099C420.948 445.683 421.302 444.178 422.009 442.585L430.636 437.54C430.194 438.425 429.751 439.531 429.309 440.859C428.778 442.275 428.424 443.603 428.247 444.842C428.07 446.169 428.159 447.276 428.513 448.161C428.867 449.134 429.663 449.621 430.902 449.621C431.875 449.71 432.715 449.179 433.423 448.028C434.043 446.966 434.618 445.594 435.149 443.912C435.591 442.319 435.989 440.638 436.343 438.868C436.697 437.097 437.051 435.593 437.405 434.354L446.032 395.455Z" fill="#D6A17C"/>
<path d="M477.666 386.959C479.348 385.366 481.117 384.171 482.975 383.374C484.922 382.489 486.736 382.091 488.417 382.179C490.186 382.268 491.735 382.755 493.062 383.64C494.389 384.525 495.274 385.897 495.716 387.755C496.424 390.588 496.38 393.774 495.584 397.314C494.876 400.766 493.593 404.085 491.735 407.271C489.877 410.369 487.532 413.024 484.701 415.236C481.869 417.361 478.728 418.511 475.278 418.688C475.189 419.75 475.189 420.989 475.278 422.405C475.366 423.822 475.631 425.061 476.074 426.123C476.605 427.185 477.357 427.981 478.33 428.512C479.303 429.043 480.586 428.999 482.179 428.38C484.479 427.318 486.736 425.769 488.948 423.733C491.16 421.697 493.195 419.485 495.053 417.095C496.911 414.705 498.592 412.316 500.096 409.926C501.689 407.448 502.972 405.28 503.945 403.421L507.794 403.554C506.82 406.209 505.316 409.13 503.281 412.316C501.335 415.413 499.167 418.423 496.778 421.343C494.389 424.264 491.867 426.875 489.213 429.176C486.647 431.389 484.258 432.938 482.046 433.823C480.277 434.708 478.463 435.15 476.605 435.15C474.747 435.239 473.021 434.929 471.429 434.221C469.924 433.513 468.642 432.451 467.58 431.035C466.518 429.619 465.854 427.849 465.589 425.724C465.235 423.689 465.235 420.945 465.589 417.493C466.031 413.953 466.739 410.324 467.713 406.607C468.774 402.801 470.146 399.128 471.827 395.588C473.508 391.959 475.454 389.083 477.666 386.959ZM476.074 413.511C478.109 413.334 479.878 412.758 481.383 411.785C482.975 410.723 484.347 409.439 485.497 407.935C486.647 406.43 487.576 404.793 488.284 403.023C488.992 401.253 489.567 399.571 490.009 397.978C490.275 397.004 490.496 395.898 490.673 394.659C490.938 393.42 491.027 392.269 490.938 391.207C490.85 390.057 490.584 389.127 490.142 388.419C489.788 387.623 489.08 387.224 488.019 387.224C486.603 387.401 485.231 388.463 483.904 390.411C482.577 392.358 481.338 394.659 480.188 397.314C479.126 399.969 478.197 402.801 477.401 405.811C476.693 408.731 476.251 411.298 476.074 413.511Z" fill="#D6A17C"/>
<path d="M508.902 386.959C510.583 385.366 512.353 384.171 514.211 383.374C516.157 382.489 517.971 382.091 519.652 382.179C521.422 382.268 522.97 382.755 524.298 383.64C525.625 384.525 526.51 385.897 526.952 387.755C527.66 390.588 527.616 393.774 526.819 397.314C526.111 400.766 524.828 404.085 522.97 407.271C521.112 410.369 518.768 413.024 515.936 415.236C513.105 417.361 509.964 418.511 506.513 418.688C506.425 419.75 506.425 420.989 506.513 422.405C506.602 423.822 506.867 425.061 507.309 426.123C507.84 427.185 508.592 427.981 509.566 428.512C510.539 429.043 511.822 428.999 513.415 428.38C515.715 427.318 517.971 425.769 520.183 423.733C522.395 421.697 524.43 419.485 526.288 417.095C528.146 414.705 529.828 412.316 531.332 409.926C532.924 407.448 534.207 405.28 535.181 403.421L539.029 403.554C538.056 406.209 536.552 409.13 534.517 412.316C532.57 415.413 530.403 418.423 528.014 421.343C525.625 424.264 523.103 426.875 520.449 429.176C517.883 431.389 515.494 432.938 513.282 433.823C511.512 434.708 509.698 435.15 507.84 435.15C505.982 435.239 504.257 434.929 502.664 434.221C501.16 433.513 499.877 432.451 498.816 431.035C497.754 429.619 497.09 427.849 496.825 425.724C496.471 423.689 496.471 420.945 496.825 417.493C497.267 413.953 497.975 410.324 498.948 406.607C500.01 402.801 501.381 399.128 503.063 395.588C504.744 391.959 506.69 389.083 508.902 386.959ZM507.309 413.511C509.345 413.334 511.114 412.758 512.618 411.785C514.211 410.723 515.582 409.439 516.733 407.935C517.883 406.43 518.812 404.793 519.52 403.023C520.228 401.253 520.803 399.571 521.245 397.978C521.51 397.004 521.732 395.898 521.909 394.659C522.174 393.42 522.263 392.269 522.174 391.207C522.086 390.057 521.82 389.127 521.378 388.419C521.024 387.623 520.316 387.224 519.254 387.224C517.839 387.401 516.467 388.463 515.14 390.411C513.813 392.358 512.574 394.659 511.424 397.314C510.362 399.969 509.433 402.801 508.637 405.811C507.929 408.731 507.486 411.298 507.309 413.511Z" fill="#D6A17C"/>
<path d="M24.7246 342.617C28.5292 339.608 32.6877 337.484 37.2002 336.245C41.8011 335.006 46.1366 334.652 50.2067 335.183C54.3652 335.714 58.0371 337.174 61.2224 339.564C64.4076 341.865 66.5312 345.14 67.5929 349.388C68.3007 353.017 68.0353 356.734 66.7966 360.54C65.6463 364.346 63.8325 367.842 61.3551 371.028C58.8777 374.125 55.8694 376.692 52.3302 378.728C48.791 380.675 45.0748 381.56 41.1818 381.383C40.5624 381.117 39.9873 380.675 39.4564 380.055C38.9255 379.347 38.4831 378.595 38.1292 377.798C37.7753 377.002 37.5099 376.205 37.3329 375.409C37.1559 374.524 37.0675 373.771 37.0675 373.152C40.6951 373.152 44.0573 372.444 47.1541 371.028C50.2509 369.523 52.9053 367.62 55.1173 365.319C57.3293 363.018 58.9219 360.451 59.8952 357.619C60.9569 354.787 61.2224 351.955 60.6915 349.123C59.8067 346.467 58.2141 344.476 55.9136 343.148C53.6131 341.732 50.9588 340.98 47.9504 340.891C45.0306 340.714 41.9338 341.113 38.6601 342.086C35.4748 343.06 32.555 344.564 29.9006 346.6C27.1578 348.636 24.9015 350.981 23.1319 353.636C21.3623 356.291 20.0352 359.035 19.1504 361.867C18.2656 364.611 17.7789 367.31 17.6904 369.966C17.6904 372.621 18.0444 374.966 18.7522 377.002C19.3716 379.038 20.2121 380.896 21.2739 382.578C22.3356 384.171 23.5301 385.72 24.8573 387.224C26.1845 388.64 27.5559 390.012 28.9716 391.34C30.4757 392.667 31.9357 393.995 33.3513 395.323C35.1209 397.004 36.802 398.774 38.3947 400.633C39.9873 402.492 41.3145 404.483 42.3762 406.607C43.5265 408.731 44.3228 411.032 44.7652 413.511C45.2961 415.989 45.4288 418.644 45.1633 421.476C44.4555 425.016 43.261 428.203 41.5799 431.035C39.9873 433.778 38.085 436.124 35.873 438.071C33.661 440.018 31.2278 441.523 28.5734 442.585C25.919 443.647 23.1762 444.178 20.3448 444.178C18.0444 444.178 15.7881 443.824 13.5761 443.116C11.4526 442.408 9.55033 441.39 7.86922 440.062C6.18811 438.823 4.81667 437.23 3.75492 435.283C2.69317 433.424 2.11805 431.3 2.02957 428.911C1.85261 427.583 2.07381 426.123 2.69316 424.53C3.31252 422.848 4.15307 421.388 5.21483 420.149C6.36506 418.821 7.64802 417.847 9.06369 417.228C10.4794 416.608 11.9393 416.564 13.4434 417.095C12.2047 417.715 10.8775 418.555 9.46185 419.618C8.13465 420.591 7.38258 421.963 7.20562 423.733C6.49779 426.742 6.80746 429.353 8.13466 431.566C9.46185 433.778 11.2757 435.416 13.5761 436.478C15.8766 437.54 18.4425 437.894 21.2739 437.54C24.1937 437.274 26.8923 436.124 29.3697 434.088C30.9624 433.026 32.2011 431.743 33.0859 430.238C33.9707 428.734 34.5458 427.185 34.8112 425.592C35.1652 423.999 35.2536 422.405 35.0767 420.812C34.8997 419.219 34.59 417.715 34.1476 416.299C32.9089 412.581 31.0509 409.484 28.5734 407.005C26.1845 404.527 23.6186 402.182 20.8757 399.969C18.2213 397.668 15.6997 395.234 13.3107 392.667C10.9218 390.012 9.15217 386.693 8.00194 382.711C7.11714 379.436 6.85171 375.94 7.20562 372.223C7.55954 368.505 8.44433 364.832 9.86001 361.204C11.3642 357.575 13.355 354.167 15.8324 350.981C18.3098 347.706 21.2739 344.918 24.7246 342.617Z" stroke="#A8683B" stroke-width="2" mask="url(#path-7-outside-1)"/>
<path d="M84.4057 346.069C85.7329 345.45 87.1044 345.14 88.52 345.14C89.9357 345.051 91.2187 345.272 92.3689 345.804C93.5191 346.246 94.4482 346.998 95.156 348.06C95.8638 349.123 96.2178 350.362 96.2178 351.778C96.3947 354.698 95.8196 357.708 94.4924 360.805C93.1652 363.814 91.3956 366.779 89.1836 369.7C87.0601 372.532 84.6712 375.188 82.0168 377.666C79.3624 380.144 76.7965 382.179 74.3191 383.773L72.1956 392.004C73.2573 390.499 74.5845 389.171 76.1771 388.021C77.8583 386.782 79.5394 385.941 81.2205 385.498C82.9901 384.967 84.5827 384.923 85.9984 385.366C87.5025 385.808 88.6085 386.915 89.3163 388.685C89.7587 390.012 89.8915 391.827 89.7145 394.128C89.626 396.34 89.2721 398.819 88.6528 401.562C88.1219 404.217 87.4583 407.005 86.662 409.926C85.9541 412.847 85.2463 415.679 84.5385 418.423C83.9191 421.166 83.3882 423.733 82.9458 426.123C82.5919 428.424 82.4592 430.282 82.5477 431.699C84.8481 430.725 87.1486 428.911 89.4491 426.255C91.838 423.512 94.0058 420.635 95.9523 417.626C97.9873 414.528 99.7127 411.608 101.128 408.864C102.544 406.032 103.517 404.04 104.048 402.89L107.366 403.288C106.216 406.651 104.8 409.926 103.119 413.112C101.527 416.299 99.8454 419.263 98.0758 422.007C96.3062 424.662 94.5809 427.008 92.8998 429.043C91.2187 430.991 89.7145 432.407 88.3873 433.292C86.7947 434.531 85.1578 435.416 83.4767 435.947C81.8841 436.566 80.3799 436.788 78.9642 436.611C77.6371 436.522 76.4868 436.08 75.5135 435.283C74.6287 434.487 74.1421 433.336 74.0536 431.831C73.9651 429.619 74.0979 427.141 74.4518 424.397C74.8942 421.653 75.4251 418.865 76.0444 416.033C76.6638 413.112 77.3274 410.28 78.0352 407.536C78.743 404.704 79.3624 402.182 79.8933 399.969C80.4242 397.668 80.7781 395.765 80.955 394.261C81.2205 392.667 81.2205 391.694 80.955 391.34C79.8933 391.251 78.8758 391.473 77.9025 392.004C76.9292 392.535 75.9559 393.243 74.9827 394.128C74.0979 395.013 73.2573 395.986 72.461 397.048C71.6647 398.111 70.9126 399.084 70.2048 399.969L62.3743 432.097C62.1089 433.07 61.5338 433.778 60.649 434.221C59.8527 434.575 58.9236 434.796 57.8619 434.885C56.8886 435.062 55.9153 435.106 54.9421 435.018C53.8803 434.929 53.0397 434.885 52.4204 434.885C53.5706 429.574 54.7209 424.53 55.8711 419.75C57.0213 414.971 58.1273 410.236 59.1891 405.545C60.3393 400.854 61.4453 396.119 62.507 391.34C63.6573 386.561 64.8518 381.516 66.0905 376.205C66.7098 373.993 67.5504 371.382 68.6121 368.373C69.6739 365.363 70.9568 362.443 72.461 359.61C73.9652 356.69 75.6905 354.035 77.6371 351.645C79.6721 349.167 81.9283 347.308 84.4057 346.069ZM84.6712 351.91C83.6094 353.415 82.6362 355.274 81.7514 357.486C80.8666 359.61 80.026 361.867 79.2297 364.257C78.5218 366.558 77.9025 368.859 77.3716 371.16C76.8407 373.373 76.3541 375.32 75.9117 377.002C77.8583 375.497 79.7163 373.771 81.4859 371.824C83.344 369.877 84.9809 367.842 86.3965 365.717C87.9007 363.593 89.1394 361.469 90.1127 359.345C91.0859 357.132 91.7053 355.052 91.9707 353.105C92.1477 351.866 91.9707 350.981 91.4399 350.45C90.909 349.831 90.2454 349.521 89.4491 349.521C88.6528 349.432 87.8122 349.609 86.9274 350.052C86.0426 350.494 85.2905 351.114 84.6712 351.91Z" stroke="#A8683B" stroke-width="2" mask="url(#path-7-outside-1)"/>
<path d="M118.47 384.038C121.921 383.419 124.664 383.374 126.699 383.905C128.734 384.436 130.238 385.41 131.211 386.826C132.184 388.242 132.715 390.012 132.804 392.136C132.892 394.172 132.715 396.429 132.273 398.907C131.919 400.943 131.521 403.377 131.078 406.209C130.636 409.041 129.972 412.006 129.088 415.104C128.203 418.113 127.008 421.122 125.504 424.131C124 427.141 122.053 429.796 119.664 432.097C117.718 433.867 115.506 435.062 113.029 435.681C110.64 436.301 108.339 436.345 106.127 435.814C103.915 435.372 102.057 434.442 100.553 433.026C99.0488 431.61 98.2524 429.751 98.164 427.45C97.6331 423.468 97.8543 418.998 98.8276 414.042C99.8008 408.997 101.172 404.35 102.942 400.102C104.446 396.119 106.348 392.712 108.649 389.88C110.949 387.047 114.223 385.1 118.47 384.038ZM118.205 388.817C117.231 389.968 116.479 391.074 115.948 392.136C115.506 393.198 115.196 394.261 115.019 395.323C114.842 396.296 114.798 397.314 114.887 398.376C114.975 399.438 115.064 400.589 115.152 401.828C114.267 402.005 113.471 401.961 112.763 401.695C112.055 401.341 111.436 400.943 110.905 400.5C109.755 404.926 108.737 409.439 107.852 414.042C106.968 418.644 106.658 423.025 106.923 427.185C107.277 429.486 108.251 430.814 109.843 431.168C111.436 431.522 113.117 430.858 114.887 429.176C116.037 427.849 117.054 426.078 117.939 423.866C118.824 421.565 119.62 419.042 120.328 416.299C121.036 413.555 121.655 410.767 122.186 407.935C122.717 405.103 123.159 402.492 123.513 400.102C123.69 398.686 123.823 397.226 123.912 395.721C124.088 394.216 124 392.933 123.646 391.871C123.381 390.72 122.806 389.88 121.921 389.348C121.124 388.729 119.886 388.552 118.205 388.817Z" stroke="#A8683B" stroke-width="2" mask="url(#path-7-outside-1)"/>
<path d="M138.297 406.74C137.501 406.209 136.97 405.28 136.704 403.952C136.439 402.536 136.35 400.943 136.439 399.173C136.616 397.314 136.97 395.367 137.501 393.331C138.032 391.296 138.695 389.393 139.491 387.623C140.288 385.852 141.173 384.348 142.146 383.109C143.208 381.781 144.314 380.896 145.464 380.454C146.968 379.923 147.897 380.232 148.251 381.383C148.605 382.534 148.561 384.127 148.118 386.162C147.676 388.198 146.968 390.499 145.995 393.066C145.021 395.544 144.004 397.845 142.942 399.969C145.951 397.668 148.339 395.146 150.109 392.402C151.967 389.658 153.339 387.313 154.223 385.366C154.754 384.923 155.551 384.746 156.612 384.835C157.763 384.923 158.868 385.189 159.93 385.631C161.08 385.985 162.01 386.472 162.717 387.092C163.514 387.711 163.868 388.331 163.779 388.95C161.479 394.703 159.311 400.589 157.276 406.607C155.329 412.537 153.781 418.467 152.631 424.397C152.454 425.813 152.365 427.141 152.365 428.38C152.454 429.53 152.852 430.238 153.56 430.504C154.445 430.15 155.772 428.911 157.541 426.787C159.399 424.662 161.346 422.14 163.381 419.219C165.504 416.299 167.584 413.201 169.619 409.926C171.742 406.651 173.468 403.686 174.795 401.031C175.237 401.031 175.901 401.076 176.786 401.164C177.67 401.253 178.334 401.253 178.776 401.164C177.361 403.996 175.68 407.094 173.733 410.457C171.875 413.82 169.884 417.095 167.761 420.281C165.726 423.379 163.646 426.211 161.523 428.778C159.488 431.345 157.541 433.203 155.683 434.354C154.179 435.239 152.675 435.681 151.171 435.681C149.667 435.77 148.295 435.504 147.056 434.885C145.906 434.354 144.977 433.469 144.269 432.23C143.65 430.991 143.429 429.486 143.606 427.716C143.96 423.202 144.977 418.113 146.658 412.449C148.428 406.696 150.33 401.12 152.365 395.721C151.834 396.694 150.994 397.934 149.844 399.438C148.693 400.943 147.41 402.315 145.995 403.554C144.579 404.793 143.163 405.766 141.748 406.474C140.421 407.182 139.27 407.271 138.297 406.74Z" stroke="#A8683B" stroke-width="2" mask="url(#path-7-outside-1)"/>
<path d="M182.888 350.583C183.418 349.875 184.082 349.344 184.878 348.99C185.763 348.636 186.648 348.37 187.533 348.193C188.506 348.016 189.391 347.972 190.187 348.06C190.983 348.06 191.603 348.105 192.045 348.193L187.931 367.31L199.477 367.178C199.389 369.036 198.858 370.364 197.885 371.16C196.912 371.957 195.761 372.488 194.434 372.754C193.107 372.931 191.691 372.975 190.187 372.886C188.771 372.709 187.577 372.621 186.604 372.621L174.924 427.185C176.606 426.211 178.375 424.751 180.233 422.804C182.091 420.857 183.905 418.732 185.675 416.431C187.444 414.13 189.081 411.829 190.585 409.528C192.178 407.138 193.505 405.014 194.567 403.155C195.009 403.155 195.717 403.111 196.69 403.023C197.752 402.934 198.504 402.846 198.947 402.757C197.973 404.881 196.602 407.404 194.832 410.324C193.063 413.157 191.072 416.077 188.86 419.086C186.736 422.007 184.524 424.795 182.224 427.45C180.012 430.017 177.977 432.008 176.119 433.424C174.792 434.575 173.465 435.327 172.137 435.681C170.81 436.035 169.616 436.08 168.554 435.814C167.492 435.549 166.696 434.973 166.165 434.088C165.634 433.115 165.501 431.92 165.767 430.504C167.359 420.857 169.217 411.209 171.341 401.562C173.553 391.915 175.632 382.224 177.579 372.488C176.871 372.4 175.986 372.355 174.924 372.355C173.951 372.355 172.978 372.355 172.005 372.355C171.12 372.267 170.323 372.134 169.616 371.957C168.996 371.692 168.687 371.205 168.687 370.497C168.775 369.789 169.262 369.258 170.147 368.904C171.031 368.55 172.005 368.328 173.066 368.24C174.128 368.063 175.19 368.019 176.252 368.107C177.313 368.107 178.065 368.107 178.508 368.107C178.862 366.514 179.26 364.877 179.702 363.195C180.145 361.513 180.543 359.876 180.897 358.283C181.251 356.69 181.605 355.229 181.959 353.902C182.312 352.486 182.622 351.379 182.888 350.583Z" stroke="#A8683B" stroke-width="2" mask="url(#path-7-outside-1)"/>
<path d="M198.878 386.959C200.559 385.366 202.329 384.171 204.187 383.374C206.134 382.489 207.947 382.091 209.628 382.179C211.398 382.268 212.946 382.755 214.274 383.64C215.601 384.525 216.486 385.897 216.928 387.755C217.636 390.588 217.592 393.774 216.795 397.314C216.087 400.766 214.805 404.085 212.946 407.271C211.088 410.369 208.744 413.024 205.912 415.236C203.081 417.361 199.94 418.511 196.489 418.688C196.401 419.75 196.401 420.989 196.489 422.405C196.578 423.822 196.843 425.061 197.286 426.123C197.816 427.185 198.569 427.981 199.542 428.512C200.515 429.043 201.798 428.999 203.391 428.38C205.691 427.318 207.947 425.769 210.159 423.733C212.371 421.697 214.406 419.485 216.264 417.095C218.122 414.705 219.804 412.316 221.308 409.926C222.9 407.448 224.183 405.28 225.157 403.421L229.005 403.554C228.032 406.209 226.528 409.13 224.493 412.316C222.546 415.413 220.379 418.423 217.99 421.343C215.601 424.264 213.079 426.875 210.425 429.176C207.859 431.389 205.47 432.938 203.258 433.823C201.488 434.708 199.674 435.15 197.816 435.15C195.958 435.239 194.233 434.929 192.64 434.221C191.136 433.513 189.853 432.451 188.792 431.035C187.73 429.619 187.066 427.849 186.801 425.724C186.447 423.689 186.447 420.945 186.801 417.493C187.243 413.953 187.951 410.324 188.924 406.607C189.986 402.801 191.357 399.128 193.039 395.588C194.72 391.959 196.666 389.083 198.878 386.959ZM197.286 413.511C199.321 413.334 201.09 412.758 202.594 411.785C204.187 410.723 205.558 409.439 206.709 407.935C207.859 406.43 208.788 404.793 209.496 403.023C210.204 401.253 210.779 399.571 211.221 397.978C211.487 397.004 211.708 395.898 211.885 394.659C212.15 393.42 212.239 392.269 212.15 391.207C212.062 390.057 211.796 389.127 211.354 388.419C211 387.623 210.292 387.224 209.23 387.224C207.815 387.401 206.443 388.463 205.116 390.411C203.789 392.358 202.55 394.659 201.4 397.314C200.338 399.969 199.409 402.801 198.613 405.811C197.905 408.731 197.463 411.298 197.286 413.511Z" stroke="#A8683B" stroke-width="2" mask="url(#path-7-outside-1)"/>
<path d="M225.336 386.693C226.929 385.808 228.698 385.366 230.645 385.366C232.68 385.366 233.963 385.852 234.494 386.826L233.299 392.136C234.892 390.632 236.706 389.171 238.741 387.755C240.864 386.339 242.988 385.454 245.111 385.1C246.881 384.835 248.252 384.967 249.225 385.498C250.287 386.029 251.084 386.782 251.614 387.755C252.145 388.729 252.411 389.88 252.411 391.207C252.499 392.446 252.499 393.641 252.411 394.792C251.703 400.633 250.597 406.43 249.093 412.183C247.677 417.847 246.527 423.6 245.642 429.442C246.704 428.822 247.81 427.804 248.96 426.388C250.199 424.884 251.393 423.158 252.543 421.211C253.782 419.263 254.977 417.272 256.127 415.236C257.277 413.112 258.295 411.077 259.179 409.13C260.153 407.182 260.993 405.501 261.701 404.085C262.409 402.58 262.94 401.518 263.294 400.899L267.275 401.031C266.037 403.332 264.577 406.12 262.896 409.395C261.303 412.67 259.622 415.9 257.852 419.086C256.171 422.273 254.49 425.149 252.809 427.716C251.216 430.282 249.801 432.008 248.562 432.893C247.589 433.69 246.438 434.31 245.111 434.752C243.784 435.195 242.501 435.416 241.262 435.416C240.024 435.504 238.962 435.327 238.077 434.885C237.281 434.442 236.883 433.646 236.883 432.495C236.794 430.282 236.927 427.716 237.281 424.795C237.723 421.786 238.254 418.777 238.873 415.768C239.581 412.67 240.289 409.661 240.997 406.74C241.705 403.731 242.236 401.076 242.589 398.774C243.032 396.473 243.253 394.659 243.253 393.331C243.342 392.004 243.032 391.428 242.324 391.605C240.554 392.313 238.519 393.685 236.219 395.721C234.007 397.757 232.237 400.5 230.91 403.952C230.025 406.607 229.229 409.528 228.521 412.714C227.813 415.9 227.15 418.954 226.53 421.874C225.911 424.795 225.38 427.406 224.938 429.707C224.495 431.92 224.141 433.424 223.876 434.221C222.549 434.752 221.045 434.973 219.364 434.885C217.771 434.796 216.355 434.708 215.117 434.619L225.336 386.693Z" stroke="#A8683B" stroke-width="2" mask="url(#path-7-outside-1)"/>
<path d="M261.851 398.111C261.763 395.721 262.161 393.375 263.046 391.074C263.931 388.773 265.125 386.782 266.629 385.1C268.222 383.33 270.036 381.958 272.071 380.985C274.194 379.923 276.406 379.392 278.707 379.392C281.892 379.392 284.193 380.277 285.608 382.047C287.112 383.728 287.864 385.72 287.864 388.021C287.864 390.234 287.245 392.402 286.006 394.526C284.768 396.562 283.042 397.889 280.83 398.509C279.415 398.951 278.22 398.951 277.247 398.509C276.274 398.066 275.522 397.358 274.991 396.385C274.548 395.411 274.327 394.261 274.327 392.933C274.327 391.605 274.548 390.322 274.991 389.083L280.034 388.95C279.769 390.543 279.724 392.048 279.901 393.464C280.078 394.792 280.521 395.411 281.228 395.323C281.759 394.615 282.202 393.73 282.556 392.667C282.998 391.517 283.175 390.411 283.087 389.348C283.087 388.198 282.821 387.136 282.29 386.162C281.759 385.189 280.83 384.525 279.503 384.171C278.618 383.994 277.689 384.038 276.716 384.304C275.831 384.569 274.991 385.012 274.194 385.631C273.398 386.251 272.69 387.047 272.071 388.021C271.54 388.994 271.23 390.057 271.142 391.207C270.965 392.8 271.053 394.393 271.407 395.986C271.85 397.491 272.425 398.951 273.133 400.367C273.84 401.784 274.637 403.2 275.522 404.616C276.406 405.943 277.247 407.271 278.043 408.599C279.724 411.431 280.786 414.528 281.228 417.892C281.759 421.166 280.919 424.884 278.707 429.043C277.38 431.256 275.566 432.893 273.265 433.955C271.053 435.018 268.753 435.637 266.364 435.814C264.063 435.991 261.896 435.726 259.861 435.018C257.826 434.398 256.366 433.469 255.481 432.23C254.242 430.371 254.109 428.114 255.083 425.459C255.968 422.804 257.693 420.458 260.259 418.423L267.027 421.476C265.789 422.096 264.639 422.892 263.577 423.866C262.603 424.751 261.851 425.68 261.321 426.654C260.878 427.539 260.701 428.38 260.79 429.176C260.967 429.884 261.586 430.327 262.648 430.504C265.214 430.769 267.426 430.061 269.284 428.38C271.142 426.698 271.938 424.574 271.673 422.007C271.407 419.883 270.744 417.847 269.682 415.9C268.709 413.953 267.647 412.05 266.497 410.192C265.346 408.245 264.285 406.297 263.311 404.35C262.427 402.403 261.94 400.323 261.851 398.111Z" stroke="#A8683B" stroke-width="2" mask="url(#path-7-outside-1)"/>
<path d="M359.063 339.298C361.806 338.325 364.593 337.794 367.424 337.705C370.256 337.617 372.91 338.015 375.388 338.9C377.865 339.697 379.989 340.98 381.758 342.75C383.616 344.52 384.899 346.777 385.607 349.521C386.757 353.681 386.757 358.15 385.607 362.929C384.545 367.62 382.599 372.134 379.767 376.471C377.024 380.719 373.574 384.525 369.415 387.888C365.257 391.251 360.744 393.641 355.878 395.057C352.781 396.031 350.392 396.163 348.711 395.455C347.03 394.747 345.88 393.641 345.26 392.136C344.641 390.543 344.508 388.773 344.862 386.826C345.216 384.79 345.88 382.888 346.853 381.117C348.357 379.967 349.95 379.082 351.631 378.462C353.4 377.843 355.126 377.179 356.807 376.471C356.188 378.064 355.435 379.79 354.551 381.648C353.754 383.419 353.71 385.056 354.418 386.561C355.214 387.357 356.32 387.623 357.736 387.357C359.152 387.003 360.435 386.472 361.585 385.764C367.336 382.224 371.76 377.71 374.857 372.223C377.953 366.647 379.458 360.85 379.369 354.831C379.281 353.238 379.015 351.733 378.573 350.317C378.13 348.813 377.511 347.485 376.715 346.335C375.918 345.184 374.901 344.255 373.662 343.547C372.424 342.839 370.964 342.529 369.283 342.617C365.301 342.529 361.452 343.635 357.736 345.936C354.108 348.237 350.923 350.937 348.18 354.035C345.083 357.486 342.385 361.159 340.084 365.054C337.784 368.948 335.837 372.975 334.245 377.135C332.652 381.206 331.325 385.366 330.263 389.614C329.201 393.774 328.361 397.889 327.741 401.961C327.476 405.147 327.387 408.289 327.476 411.386C327.653 414.396 328.14 417.228 328.936 419.883C329.821 422.538 331.104 424.928 332.785 427.052C334.554 429.176 336.899 430.858 339.819 432.097C343.623 433.07 347.207 433.07 350.569 432.097C354.02 431.035 357.205 429.442 360.125 427.318C363.133 425.193 365.876 422.759 368.353 420.016C370.831 417.272 372.999 414.661 374.857 412.183C374.326 415.281 373.22 418.246 371.539 421.078C369.946 423.822 367.955 426.344 365.566 428.645C363.266 430.946 360.656 432.938 357.736 434.619C354.905 436.389 351.985 437.717 348.976 438.602C346.057 439.576 343.137 440.062 340.217 440.062C337.297 440.151 334.643 439.664 332.254 438.602C328.007 437.097 324.645 434.531 322.167 430.902C319.69 427.185 317.964 423.158 316.991 418.821C315.31 410.767 315.443 402.403 317.389 393.73C319.336 384.967 322.521 376.515 326.945 368.373C328.626 365.186 330.573 362.133 332.785 359.212C335.085 356.203 337.607 353.459 340.35 350.981C343.093 348.414 346.012 346.158 349.109 344.21C352.294 342.175 355.612 340.537 359.063 339.298Z" stroke="#A8683B" stroke-width="2" mask="url(#path-7-outside-1)"/>
<path d="M397.129 384.038C400.579 383.419 403.322 383.374 405.357 383.905C407.392 384.436 408.896 385.41 409.87 386.826C410.843 388.242 411.374 390.012 411.462 392.136C411.551 394.172 411.374 396.429 410.931 398.907C410.578 400.943 410.179 403.377 409.737 406.209C409.295 409.041 408.631 412.006 407.746 415.104C406.861 418.113 405.667 421.122 404.163 424.131C402.659 427.141 400.712 429.796 398.323 432.097C396.377 433.867 394.165 435.062 391.687 435.681C389.298 436.301 386.998 436.345 384.786 435.814C382.574 435.372 380.716 434.442 379.212 433.026C377.707 431.61 376.911 429.751 376.823 427.45C376.292 423.468 376.513 418.998 377.486 414.042C378.459 408.997 379.831 404.35 381.6 400.102C383.105 396.119 385.007 392.712 387.307 389.88C389.608 387.047 392.882 385.1 397.129 384.038ZM396.863 388.817C395.89 389.968 395.138 391.074 394.607 392.136C394.165 393.198 393.855 394.261 393.678 395.323C393.501 396.296 393.457 397.314 393.545 398.376C393.634 399.438 393.722 400.589 393.811 401.828C392.926 402.005 392.13 401.961 391.422 401.695C390.714 401.341 390.095 400.943 389.564 400.5C388.413 404.926 387.396 409.439 386.511 414.042C385.626 418.644 385.317 423.025 385.582 427.185C385.936 429.486 386.909 430.814 388.502 431.168C390.095 431.522 391.776 430.858 393.545 429.176C394.695 427.849 395.713 426.078 396.598 423.866C397.483 421.565 398.279 419.042 398.987 416.299C399.695 413.555 400.314 410.767 400.845 407.935C401.376 405.103 401.818 402.492 402.172 400.102C402.349 398.686 402.482 397.226 402.57 395.721C402.747 394.216 402.659 392.933 402.305 391.871C402.039 390.72 401.464 389.88 400.579 389.348C399.783 388.729 398.544 388.552 396.863 388.817Z" stroke="#A8683B" stroke-width="2" mask="url(#path-7-outside-1)"/>
<path d="M418.814 395.455C419.256 393.597 419.787 391.738 420.406 389.88C421.114 388.021 421.999 386.339 423.061 384.835C424.211 383.242 425.582 381.87 427.175 380.719C428.768 379.569 430.758 378.816 433.147 378.462C435.713 378.197 437.748 378.595 439.253 379.657C440.757 380.631 441.774 381.958 442.305 383.64C442.836 385.233 442.88 387.047 442.438 389.083C442.084 391.119 441.332 393.021 440.182 394.792L433.944 393.066C434.298 392.269 434.652 391.384 435.006 390.411C435.448 389.437 435.758 388.463 435.935 387.49C436.2 386.516 436.288 385.631 436.2 384.835C436.2 383.95 435.935 383.286 435.404 382.843C434.43 382.224 433.413 382.357 432.351 383.242C431.378 384.038 430.714 384.879 430.36 385.764C428.856 389.216 427.794 392.712 427.175 396.252C426.556 399.792 425.848 403.288 425.052 406.74L434.342 406.607C434.519 407.315 434.386 408.289 433.944 409.528C433.59 410.678 433.103 411.696 432.484 412.581L424.123 412.714L418.416 436.611C417.885 438.735 417.177 440.77 416.292 442.718C415.407 444.665 414.301 446.435 412.974 448.028C411.647 449.621 410.054 450.949 408.196 452.011C406.338 453.073 404.17 453.781 401.693 454.135C399.835 454.312 398.331 454.091 397.181 453.471C395.942 452.852 395.057 451.966 394.526 450.816C393.907 449.754 393.641 448.515 393.73 447.099C393.73 445.683 394.084 444.178 394.792 442.585L403.418 437.54C402.976 438.425 402.534 439.531 402.091 440.859C401.56 442.275 401.206 443.603 401.029 444.842C400.852 446.169 400.941 447.276 401.295 448.161C401.649 449.134 402.445 449.621 403.684 449.621C404.657 449.71 405.498 449.179 406.205 448.028C406.825 446.966 407.4 445.594 407.931 443.912C408.373 442.319 408.771 440.638 409.125 438.868C409.479 437.097 409.833 435.593 410.187 434.354L418.814 395.455Z" stroke="#A8683B" stroke-width="2" mask="url(#path-7-outside-1)"/>
<path d="M446.032 395.455C446.474 393.597 447.005 391.738 447.624 389.88C448.332 388.021 449.217 386.339 450.279 384.835C451.429 383.242 452.8 381.87 454.393 380.719C455.986 379.569 457.976 378.816 460.365 378.462C462.931 378.197 464.966 378.595 466.47 379.657C467.975 380.631 468.992 381.958 469.523 383.64C470.054 385.233 470.098 387.047 469.656 389.083C469.302 391.119 468.55 393.021 467.399 394.792L461.162 393.066C461.516 392.269 461.869 391.384 462.223 390.411C462.666 389.437 462.975 388.463 463.152 387.49C463.418 386.516 463.506 385.631 463.418 384.835C463.418 383.95 463.152 383.286 462.621 382.843C461.648 382.224 460.631 382.357 459.569 383.242C458.596 384.038 457.932 384.879 457.578 385.764C456.074 389.216 455.012 392.712 454.393 396.252C453.774 399.792 453.066 403.288 452.269 406.74L461.56 406.607C461.737 407.315 461.604 408.289 461.162 409.528C460.808 410.678 460.321 411.696 459.702 412.581L451.34 412.714L445.633 436.611C445.103 438.735 444.395 440.77 443.51 442.718C442.625 444.665 441.519 446.435 440.192 448.028C438.865 449.621 437.272 450.949 435.414 452.011C433.556 453.073 431.388 453.781 428.911 454.135C427.053 454.312 425.549 454.091 424.398 453.471C423.16 452.852 422.275 451.966 421.744 450.816C421.125 449.754 420.859 448.515 420.948 447.099C420.948 445.683 421.302 444.178 422.009 442.585L430.636 437.54C430.194 438.425 429.751 439.531 429.309 440.859C428.778 442.275 428.424 443.603 428.247 444.842C428.07 446.169 428.159 447.276 428.513 448.161C428.867 449.134 429.663 449.621 430.902 449.621C431.875 449.71 432.715 449.179 433.423 448.028C434.043 446.966 434.618 445.594 435.149 443.912C435.591 442.319 435.989 440.638 436.343 438.868C436.697 437.097 437.051 435.593 437.405 434.354L446.032 395.455Z" stroke="#A8683B" stroke-width="2" mask="url(#path-7-outside-1)"/>
<path d="M477.666 386.959C479.348 385.366 481.117 384.171 482.975 383.374C484.922 382.489 486.736 382.091 488.417 382.179C490.186 382.268 491.735 382.755 493.062 383.64C494.389 384.525 495.274 385.897 495.716 387.755C496.424 390.588 496.38 393.774 495.584 397.314C494.876 400.766 493.593 404.085 491.735 407.271C489.877 410.369 487.532 413.024 484.701 415.236C481.869 417.361 478.728 418.511 475.278 418.688C475.189 419.75 475.189 420.989 475.278 422.405C475.366 423.822 475.631 425.061 476.074 426.123C476.605 427.185 477.357 427.981 478.33 428.512C479.303 429.043 480.586 428.999 482.179 428.38C484.479 427.318 486.736 425.769 488.948 423.733C491.16 421.697 493.195 419.485 495.053 417.095C496.911 414.705 498.592 412.316 500.096 409.926C501.689 407.448 502.972 405.28 503.945 403.421L507.794 403.554C506.82 406.209 505.316 409.13 503.281 412.316C501.335 415.413 499.167 418.423 496.778 421.343C494.389 424.264 491.867 426.875 489.213 429.176C486.647 431.389 484.258 432.938 482.046 433.823C480.277 434.708 478.463 435.15 476.605 435.15C474.747 435.239 473.021 434.929 471.429 434.221C469.924 433.513 468.642 432.451 467.58 431.035C466.518 429.619 465.854 427.849 465.589 425.724C465.235 423.689 465.235 420.945 465.589 417.493C466.031 413.953 466.739 410.324 467.713 406.607C468.774 402.801 470.146 399.128 471.827 395.588C473.508 391.959 475.454 389.083 477.666 386.959ZM476.074 413.511C478.109 413.334 479.878 412.758 481.383 411.785C482.975 410.723 484.347 409.439 485.497 407.935C486.647 406.43 487.576 404.793 488.284 403.023C488.992 401.253 489.567 399.571 490.009 397.978C490.275 397.004 490.496 395.898 490.673 394.659C490.938 393.42 491.027 392.269 490.938 391.207C490.85 390.057 490.584 389.127 490.142 388.419C489.788 387.623 489.08 387.224 488.019 387.224C486.603 387.401 485.231 388.463 483.904 390.411C482.577 392.358 481.338 394.659 480.188 397.314C479.126 399.969 478.197 402.801 477.401 405.811C476.693 408.731 476.251 411.298 476.074 413.511Z" stroke="#A8683B" stroke-width="2" mask="url(#path-7-outside-1)"/>
<path d="M508.902 386.959C510.583 385.366 512.353 384.171 514.211 383.374C516.157 382.489 517.971 382.091 519.652 382.179C521.422 382.268 522.97 382.755 524.298 383.64C525.625 384.525 526.51 385.897 526.952 387.755C527.66 390.588 527.616 393.774 526.819 397.314C526.111 400.766 524.828 404.085 522.97 407.271C521.112 410.369 518.768 413.024 515.936 415.236C513.105 417.361 509.964 418.511 506.513 418.688C506.425 419.75 506.425 420.989 506.513 422.405C506.602 423.822 506.867 425.061 507.309 426.123C507.84 427.185 508.592 427.981 509.566 428.512C510.539 429.043 511.822 428.999 513.415 428.38C515.715 427.318 517.971 425.769 520.183 423.733C522.395 421.697 524.43 419.485 526.288 417.095C528.146 414.705 529.828 412.316 531.332 409.926C532.924 407.448 534.207 405.28 535.181 403.421L539.029 403.554C538.056 406.209 536.552 409.13 534.517 412.316C532.57 415.413 530.403 418.423 528.014 421.343C525.625 424.264 523.103 426.875 520.449 429.176C517.883 431.389 515.494 432.938 513.282 433.823C511.512 434.708 509.698 435.15 507.84 435.15C505.982 435.239 504.257 434.929 502.664 434.221C501.16 433.513 499.877 432.451 498.816 431.035C497.754 429.619 497.09 427.849 496.825 425.724C496.471 423.689 496.471 420.945 496.825 417.493C497.267 413.953 497.975 410.324 498.948 406.607C500.01 402.801 501.381 399.128 503.063 395.588C504.744 391.959 506.69 389.083 508.902 386.959ZM507.309 413.511C509.345 413.334 511.114 412.758 512.618 411.785C514.211 410.723 515.582 409.439 516.733 407.935C517.883 406.43 518.812 404.793 519.52 403.023C520.228 401.253 520.803 399.571 521.245 397.978C521.51 397.004 521.732 395.898 521.909 394.659C522.174 393.42 522.263 392.269 522.174 391.207C522.086 390.057 521.82 389.127 521.378 388.419C521.024 387.623 520.316 387.224 519.254 387.224C517.839 387.401 516.467 388.463 515.14 390.411C513.813 392.358 512.574 394.659 511.424 397.314C510.362 399.969 509.433 402.801 508.637 405.811C507.929 408.731 507.486 411.298 507.309 413.511Z" stroke="#A8683B" stroke-width="2" mask="url(#path-7-outside-1)"/>
</svg>
