<svg width="267" height="57" viewBox="0 0 267 57" fill="none" xmlns="http://www.w3.org/2000/svg">
<path d="M81.6982 9.33447C83.069 8.25493 84.5673 7.4929 86.1931 7.04838C87.8508 6.60386 89.4128 6.47686 90.8793 6.66736C92.3776 6.85787 93.7005 7.38177 94.8482 8.23905C95.9958 9.06458 96.7609 10.2394 97.1434 11.7634C97.3985 13.0652 97.3028 14.3988 96.8565 15.7641C96.4421 17.1294 95.7886 18.3836 94.896 19.5266C94.0034 20.6379 92.9195 21.5587 91.6443 22.289C90.3692 22.9875 89.0303 23.305 87.6276 23.2415C87.4045 23.1463 87.1973 22.9875 87.006 22.7653C86.8147 22.5113 86.6553 22.2414 86.5278 21.9556C86.4003 21.6698 86.3046 21.3841 86.2409 21.0983C86.1771 20.7808 86.1453 20.5109 86.1453 20.2887C87.4523 20.2887 88.6637 20.0347 89.7794 19.5266C90.8952 18.9869 91.8516 18.3042 92.6485 17.4787C93.4455 16.6531 94.0193 15.7324 94.37 14.7163C94.7525 13.7003 94.8482 12.6842 94.6569 11.6682C94.3381 10.7157 93.7643 10.0012 92.9354 9.52498C92.1066 9.01696 91.1502 8.74707 90.0663 8.71532C89.0143 8.65182 87.8986 8.7947 86.7191 9.14396C85.5714 9.49323 84.5194 10.033 83.5631 10.7633C82.5748 11.4936 81.7619 12.335 81.1243 13.2875C80.4868 14.24 80.0086 15.2243 79.6898 16.2404C79.371 17.2247 79.1957 18.1931 79.1638 19.1456C79.1638 20.0982 79.2913 20.9396 79.5463 21.6698C79.7695 22.4001 80.0723 23.0669 80.4549 23.6702C80.8374 24.2417 81.2678 24.7973 81.746 25.3371C82.2242 25.8451 82.7183 26.3373 83.2283 26.8135C83.7703 27.2898 84.2963 27.7661 84.8063 28.2424C85.4439 28.8456 86.0496 29.4807 86.6234 30.1474C87.1973 30.8142 87.6754 31.5286 88.058 32.2906C88.4724 33.0527 88.7593 33.8782 88.9187 34.7672C89.11 35.6563 89.1578 36.6088 89.0622 37.6249C88.8071 38.8949 88.3768 40.038 87.7711 41.054C87.1973 42.0383 86.5119 42.8797 85.7149 43.5782C84.9179 44.2768 84.0413 44.8165 83.0849 45.1975C82.1285 45.5786 81.1403 45.7691 80.1202 45.7691C79.2913 45.7691 78.4784 45.6421 77.6814 45.388C76.9163 45.134 76.231 44.7689 75.6253 44.2926C75.0196 43.8481 74.5254 43.2766 74.1429 42.5781C73.7603 41.9113 73.5531 41.1493 73.5213 40.292C73.4575 39.8157 73.5372 39.2918 73.7603 38.7203C73.9835 38.117 74.2863 37.5931 74.6689 37.1486C75.0833 36.6723 75.5456 36.3231 76.0556 36.1008C76.5657 35.8785 77.0917 35.8627 77.6336 36.0532C77.1873 36.2754 76.7091 36.5771 76.1991 36.9581C75.7209 37.3073 75.4499 37.7995 75.3862 38.4345C75.1311 39.5141 75.2427 40.4507 75.7209 41.2445C76.1991 42.0383 76.8526 42.6257 77.6814 43.0067C78.5103 43.3877 79.4348 43.5147 80.4549 43.3877C81.5069 43.2925 82.4792 42.8797 83.3718 42.1494C83.9456 41.7684 84.3919 41.308 84.7107 40.7682C85.0295 40.2285 85.2367 39.6728 85.3323 39.1013C85.4599 38.5298 85.4917 37.9582 85.428 37.3867C85.3642 36.8152 85.2526 36.2754 85.0933 35.7674C84.647 34.4339 83.9775 33.3226 83.0849 32.4335C82.2242 31.5445 81.2997 30.7031 80.3114 29.9093C79.3551 29.0838 78.4465 28.2106 77.5858 27.2898C76.7251 26.3373 76.0875 25.1466 75.6731 23.7178C75.3543 22.543 75.2586 21.2888 75.3862 19.9553C75.5137 18.6217 75.8325 17.304 76.3425 16.0022C76.8845 14.7004 77.6017 13.478 78.4943 12.335C79.387 11.1602 80.4549 10.16 81.6982 9.33447Z" fill="white"/>
<path d="M103.201 10.5728C103.679 10.3505 104.173 10.2394 104.683 10.2394C105.193 10.2076 105.656 10.287 106.07 10.4775C106.485 10.6363 106.819 10.9062 107.074 11.2872C107.329 11.6682 107.457 12.1127 107.457 12.6207C107.521 13.6685 107.313 14.7481 106.835 15.8594C106.357 16.9389 105.719 18.0026 104.922 19.0504C104.157 20.0664 103.297 21.0189 102.34 21.908C101.384 22.797 100.459 23.5273 99.5669 24.0988L98.8018 27.0517C99.1843 26.5119 99.6625 26.0356 100.236 25.6229C100.842 25.1784 101.448 24.8767 102.053 24.718C102.691 24.5275 103.265 24.5116 103.775 24.6703C104.317 24.8291 104.715 25.226 104.97 25.861C105.13 26.3373 105.178 26.9882 105.114 27.8137C105.082 28.6075 104.954 29.4965 104.731 30.4808C104.54 31.4334 104.301 32.4335 104.014 33.4813C103.759 34.5291 103.504 35.5452 103.249 36.5294C103.026 37.5137 102.834 38.4345 102.675 39.2918C102.548 40.1173 102.5 40.7841 102.532 41.2921C103.36 40.9429 104.189 40.292 105.018 39.3394C105.879 38.3551 106.66 37.3232 107.361 36.2437C108.094 35.1324 108.716 34.0846 109.226 33.1003C109.736 32.0843 110.087 31.3699 110.278 30.9571L111.474 31.1C111.059 32.3065 110.549 33.4813 109.943 34.6244C109.37 35.7674 108.764 36.8311 108.126 37.8154C107.489 38.7679 106.867 39.6093 106.261 40.3396C105.656 41.0381 105.114 41.5461 104.636 41.8637C104.062 42.3082 103.472 42.6257 102.866 42.8162C102.292 43.0385 101.751 43.1178 101.24 43.0543C100.762 43.0226 100.348 42.8638 99.9972 42.5781C99.6784 42.2923 99.5031 41.8795 99.4712 41.3398C99.4393 40.546 99.4872 39.6569 99.6147 38.6727C99.7741 37.6884 99.9653 36.6882 100.188 35.6722C100.412 34.6244 100.651 33.6083 100.906 32.624C101.161 31.608 101.384 30.7031 101.575 29.9093C101.766 29.0838 101.894 28.4011 101.958 27.8613C102.053 27.2898 102.053 26.9406 101.958 26.8135C101.575 26.7818 101.209 26.8612 100.858 27.0517C100.507 27.2422 100.157 27.4962 99.8059 27.8137C99.4872 28.1312 99.1843 28.4805 98.8974 28.8615C98.6105 29.2425 98.3395 29.5918 98.0845 29.9093L95.2632 41.435C95.1676 41.7843 94.9604 42.0383 94.6416 42.197C94.3547 42.324 94.0199 42.4034 93.6374 42.4352C93.2867 42.4987 92.9361 42.5146 92.5854 42.4828C92.2028 42.4511 91.9 42.4352 91.6768 42.4352C92.0913 40.5301 92.5057 38.7203 92.9201 37.0057C93.3345 35.2911 93.733 33.5924 94.1156 31.9096C94.53 30.2268 94.9285 28.5281 95.311 26.8135C95.7255 25.099 96.1558 23.2892 96.6021 21.3841C96.8253 20.5903 97.1281 19.6536 97.5107 18.5741C97.8932 17.4945 98.3555 16.4468 98.8974 15.4307C99.4393 14.3829 100.061 13.4304 100.762 12.5731C101.496 11.6841 102.308 11.0173 103.201 10.5728ZM103.297 12.6684C102.914 13.2081 102.563 13.8749 102.245 14.6687C101.926 15.4307 101.623 16.2404 101.336 17.0977C101.081 17.9232 100.858 18.7487 100.667 19.5743C100.475 20.368 100.3 21.0666 100.141 21.6698C100.842 21.1301 101.511 20.5109 102.149 19.8124C102.818 19.1139 103.408 18.3836 103.918 17.6216C104.46 16.8595 104.907 16.0975 105.257 15.3355C105.608 14.5417 105.831 13.7955 105.927 13.097C105.99 12.6525 105.927 12.335 105.735 12.1445C105.544 11.9222 105.305 11.8111 105.018 11.8111C104.731 11.7793 104.428 11.8428 104.11 12.0016C103.791 12.1603 103.52 12.3826 103.297 12.6684Z" fill="white"/>
<path d="M115.474 24.1941C116.718 23.9718 117.706 23.9559 118.439 24.1464C119.172 24.3369 119.714 24.6862 120.065 25.1942C120.415 25.7023 120.607 26.3373 120.639 27.0993C120.67 27.8296 120.607 28.6392 120.447 29.5283C120.32 30.2586 120.176 31.1317 120.017 32.1478C119.858 33.1638 119.618 34.2275 119.3 35.3388C118.981 36.4183 118.551 37.4979 118.009 38.5774C117.467 39.6569 116.765 40.6095 115.905 41.435C115.203 42.07 114.406 42.4987 113.514 42.7209C112.653 42.9432 111.824 42.9591 111.027 42.7686C110.23 42.6098 109.561 42.2764 109.019 41.7684C108.477 41.2604 108.19 40.5936 108.158 39.7681C107.967 38.3393 108.046 36.7358 108.397 34.9578C108.748 33.1479 109.242 31.481 109.88 29.9569C110.421 28.5281 111.107 27.3057 111.936 26.2897C112.765 25.2736 113.944 24.5751 115.474 24.1941ZM115.379 25.9086C115.028 26.3214 114.757 26.7183 114.566 27.0993C114.406 27.4803 114.295 27.8613 114.231 28.2424C114.167 28.5916 114.151 28.9568 114.183 29.3378C114.215 29.7188 114.247 30.1316 114.279 30.5761C113.96 30.6396 113.673 30.6237 113.418 30.5284C113.163 30.4014 112.94 30.2586 112.749 30.0998C112.334 31.6874 111.968 33.3067 111.649 34.9578C111.33 36.6088 111.218 38.1805 111.314 39.6728C111.442 40.4984 111.792 40.9746 112.366 41.1016C112.94 41.2286 113.546 40.9905 114.183 40.3872C114.598 39.911 114.964 39.2759 115.283 38.4821C115.602 37.6566 115.889 36.7517 116.144 35.7674C116.399 34.7831 116.622 33.783 116.813 32.7669C117.004 31.7509 117.164 30.8142 117.291 29.9569C117.355 29.4489 117.403 28.925 117.435 28.3852C117.499 27.8455 117.467 27.3851 117.339 27.0041C117.244 26.5913 117.036 26.2897 116.718 26.0991C116.431 25.8769 115.984 25.8134 115.379 25.9086Z" fill="white"/>
<path d="M122.618 32.3383C122.331 32.1478 122.14 31.8144 122.044 31.3381C121.948 30.8301 121.916 30.2586 121.948 29.6235C122.012 28.9568 122.14 28.2582 122.331 27.528C122.522 26.7977 122.761 26.115 123.048 25.48C123.335 24.845 123.654 24.3052 124.005 23.8607C124.387 23.3844 124.786 23.0669 125.2 22.9081C125.742 22.7176 126.077 22.8288 126.204 23.2415C126.332 23.6543 126.316 24.2258 126.156 24.9561C125.997 25.6864 125.742 26.5119 125.391 27.4327C125.041 28.3217 124.674 29.1473 124.291 29.9093C125.375 29.0838 126.236 28.1789 126.874 27.1946C127.543 26.2103 128.037 25.3689 128.356 24.6703C128.547 24.5116 128.834 24.4481 129.217 24.4798C129.631 24.5116 130.03 24.6068 130.412 24.7656C130.827 24.8926 131.161 25.0672 131.416 25.2895C131.703 25.5117 131.831 25.734 131.799 25.9563C130.97 28.0201 130.189 30.1316 129.456 32.2906C128.754 34.418 128.197 36.5453 127.782 38.6727C127.718 39.1807 127.687 39.6569 127.687 40.1015C127.718 40.5142 127.862 40.7682 128.117 40.8635C128.436 40.7365 128.914 40.292 129.551 39.5299C130.221 38.7679 130.922 37.863 131.655 36.8152C132.421 35.7674 133.17 34.6561 133.903 33.4813C134.668 32.3065 135.29 31.2429 135.768 30.2903C135.927 30.2903 136.166 30.3062 136.485 30.3379C136.804 30.3697 137.043 30.3697 137.202 30.3379C136.692 31.354 136.087 32.4653 135.385 33.6718C134.716 34.8784 133.999 36.0532 133.233 37.1962C132.5 38.3075 131.751 39.3236 130.986 40.2443C130.253 41.1651 129.551 41.8319 128.882 42.2447C128.34 42.5622 127.798 42.7209 127.256 42.7209C126.714 42.7527 126.22 42.6574 125.774 42.4352C125.359 42.2447 125.025 41.9272 124.77 41.4826C124.546 41.0381 124.467 40.4983 124.531 39.8633C124.658 38.244 125.025 36.4183 125.63 34.3862C126.268 32.3224 126.953 30.3221 127.687 28.3852C127.495 28.7345 127.192 29.179 126.778 29.7188C126.364 30.2586 125.901 30.7507 125.391 31.1952C124.881 31.6397 124.371 31.989 123.861 32.243C123.383 32.497 122.968 32.5288 122.618 32.3383Z" fill="white"/>
<path d="M138.684 12.1921C138.875 11.9381 139.114 11.7476 139.401 11.6206C139.72 11.4936 140.038 11.3983 140.357 11.3348C140.708 11.2713 141.027 11.2554 141.314 11.2872C141.601 11.2872 141.824 11.303 141.983 11.3348L140.501 18.1931L144.661 18.1455C144.629 18.8122 144.438 19.2885 144.087 19.5743C143.736 19.86 143.322 20.0505 142.844 20.1458C142.366 20.2093 141.856 20.2252 141.314 20.1934C140.804 20.1299 140.373 20.0982 140.023 20.0982L135.815 39.6728C136.42 39.3236 137.058 38.7997 137.727 38.1011C138.397 37.4026 139.05 36.6406 139.688 35.815C140.325 34.9895 140.915 34.164 141.457 33.3384C142.031 32.4812 142.509 31.7191 142.892 31.0523C143.051 31.0523 143.306 31.0365 143.657 31.0047C144.039 30.973 144.31 30.9412 144.47 30.9095C144.119 31.6715 143.625 32.5764 142.987 33.6242C142.35 34.6402 141.632 35.688 140.835 36.7676C140.07 37.8154 139.273 38.8155 138.445 39.7681C137.648 40.6889 136.914 41.4033 136.245 41.9113C135.767 42.324 135.289 42.5939 134.81 42.7209C134.332 42.8479 133.902 42.8638 133.519 42.7686C133.137 42.6733 132.85 42.4669 132.659 42.1494C132.467 41.8002 132.419 41.3715 132.515 40.8635C133.089 37.4026 133.758 33.9417 134.523 30.4808C135.32 27.0199 136.07 23.5432 136.771 20.0505C136.516 20.0188 136.197 20.0029 135.815 20.0029C135.464 20.0029 135.113 20.0029 134.763 20.0029C134.444 19.9711 134.157 19.9235 133.902 19.86C133.679 19.7648 133.567 19.5901 133.567 19.3361C133.599 19.0821 133.774 18.8916 134.093 18.7646C134.412 18.6376 134.763 18.5582 135.145 18.5265C135.528 18.463 135.91 18.4471 136.293 18.4788C136.675 18.4788 136.946 18.4788 137.106 18.4788C137.233 17.9073 137.377 17.3199 137.536 16.7166C137.695 16.1134 137.839 15.526 137.966 14.9544C138.094 14.3829 138.221 13.859 138.349 13.3828C138.476 12.8747 138.588 12.4778 138.684 12.1921Z" fill="white"/>
<path d="M144.445 25.2419C145.051 24.6703 145.688 24.2417 146.358 23.9559C147.059 23.6384 147.713 23.4955 148.318 23.5273C148.956 23.559 149.514 23.7337 149.992 24.0512C150.47 24.3687 150.789 24.8608 150.948 25.5276C151.203 26.5437 151.187 27.6867 150.9 28.9568C150.645 30.1951 150.183 31.3857 149.514 32.5288C148.844 33.6401 147.999 34.5926 146.979 35.3864C145.959 36.1484 144.828 36.5612 143.584 36.6247C143.552 37.0057 143.552 37.4502 143.584 37.9582C143.616 38.4663 143.712 38.9108 143.871 39.2918C144.062 39.6728 144.333 39.9586 144.684 40.1491C145.035 40.3396 145.497 40.3237 146.071 40.1015C146.9 39.7204 147.713 39.1648 148.51 38.4345C149.306 37.7042 150.04 36.9105 150.709 36.0532C151.379 35.1959 151.984 34.3386 152.526 33.4813C153.1 32.5923 153.562 31.8144 153.913 31.1476L155.3 31.1952C154.949 32.1478 154.407 33.1956 153.674 34.3386C152.973 35.4499 152.192 36.5294 151.331 37.5772C150.47 38.625 149.562 39.5617 148.605 40.3872C147.681 41.181 146.82 41.7366 146.023 42.0542C145.385 42.3717 144.732 42.5304 144.062 42.5304C143.393 42.5622 142.771 42.4511 142.198 42.197C141.656 41.943 141.193 41.562 140.811 41.054C140.428 40.546 140.189 39.911 140.094 39.1489C139.966 38.4186 139.966 37.4344 140.094 36.1961C140.253 34.926 140.508 33.6242 140.859 32.2906C141.241 30.9253 141.735 29.6077 142.341 28.3376C142.947 27.0358 143.648 26.0039 144.445 25.2419ZM143.871 34.7672C144.604 34.7037 145.242 34.4974 145.784 34.1481C146.358 33.7671 146.852 33.3067 147.266 32.7669C147.681 32.2271 148.015 31.6397 148.27 31.0047C148.525 30.3697 148.733 29.7664 148.892 29.1949C148.988 28.8456 149.067 28.4487 149.131 28.0042C149.227 27.5597 149.259 27.1469 149.227 26.7659C149.195 26.3532 149.099 26.0198 148.94 25.7658C148.812 25.48 148.557 25.3371 148.175 25.3371C147.665 25.4006 147.171 25.7816 146.692 26.4802C146.214 27.1787 145.768 28.0042 145.354 28.9568C144.971 29.9093 144.636 30.9253 144.349 32.0049C144.094 33.0527 143.935 33.9735 143.871 34.7672Z" fill="white"/>
<path d="M153.978 25.1466C154.551 24.8291 155.189 24.6703 155.89 24.6703C156.624 24.6703 157.086 24.845 157.277 25.1942L156.847 27.0993C157.421 26.5595 158.074 26.0356 158.807 25.5276C159.572 25.0196 160.337 24.7021 161.103 24.5751C161.74 24.4798 162.234 24.5275 162.585 24.718C162.967 24.9085 163.254 25.1784 163.446 25.5276C163.637 25.8769 163.733 26.2897 163.733 26.7659C163.764 27.2104 163.764 27.6391 163.733 28.0518C163.477 30.1474 163.079 32.2271 162.537 34.291C162.027 36.3231 161.613 38.3869 161.294 40.4825C161.676 40.2602 162.075 39.8951 162.489 39.3871C162.936 38.8473 163.366 38.2281 163.78 37.5296C164.227 36.8311 164.657 36.1167 165.071 35.3864C165.486 34.6244 165.852 33.8941 166.171 33.1956C166.522 32.497 166.825 31.8938 167.08 31.3857C167.335 30.846 167.526 30.4649 167.654 30.2427L169.088 30.2903C168.642 31.1158 168.116 32.116 167.51 33.2908C166.936 34.4656 166.331 35.6245 165.693 36.7676C165.087 37.9106 164.482 38.9425 163.876 39.8633C163.302 40.7841 162.792 41.4033 162.346 41.7208C161.995 42.0065 161.581 42.2288 161.103 42.3876C160.624 42.5463 160.162 42.6257 159.716 42.6257C159.269 42.6574 158.887 42.5939 158.568 42.4352C158.281 42.2764 158.138 41.9907 158.138 41.5779C158.106 40.7841 158.154 39.8633 158.281 38.8155C158.441 37.736 158.632 36.6564 158.855 35.5769C159.11 34.4656 159.365 33.3861 159.62 32.3383C159.875 31.2587 160.066 30.3062 160.194 29.4807C160.353 28.6551 160.433 28.0042 160.433 27.528C160.465 27.0517 160.353 26.8453 160.098 26.9088C159.461 27.1628 158.728 27.655 157.899 28.3852C157.102 29.1155 156.464 30.0998 155.986 31.3381C155.667 32.2906 155.38 33.3384 155.125 34.4815C154.87 35.6245 154.631 36.7199 154.408 37.7677C154.185 38.8155 153.994 39.7522 153.834 40.5777C153.675 41.3715 153.547 41.9113 153.452 42.197C152.973 42.3876 152.431 42.4669 151.826 42.4352C151.252 42.4034 150.742 42.3717 150.296 42.3399L153.978 25.1466Z" fill="white"/>
<path d="M167.134 29.2425C167.102 28.3852 167.246 27.5438 167.564 26.7183C167.883 25.8928 168.313 25.1784 168.855 24.5751C169.429 23.9401 170.083 23.4479 170.816 23.0987C171.581 22.7176 172.378 22.5271 173.207 22.5271C174.354 22.5271 175.183 22.8446 175.693 23.4797C176.235 24.0829 176.506 24.7973 176.506 25.6229C176.506 26.4167 176.283 27.1946 175.837 27.9566C175.391 28.6869 174.769 29.1631 173.972 29.3854C173.462 29.5442 173.032 29.5442 172.681 29.3854C172.33 29.2266 172.059 28.9726 171.868 28.6234C171.709 28.2741 171.629 27.8613 171.629 27.3851C171.629 26.9088 171.709 26.4484 171.868 26.0039L173.685 25.9563C173.589 26.5278 173.573 27.0676 173.637 27.5756C173.701 28.0518 173.86 28.2741 174.115 28.2424C174.307 27.9883 174.466 27.6708 174.594 27.2898C174.753 26.8771 174.817 26.4802 174.785 26.0991C174.785 25.6864 174.689 25.3054 174.498 24.9561C174.307 24.6068 173.972 24.3687 173.494 24.2417C173.175 24.1782 172.84 24.1941 172.49 24.2893C172.171 24.3846 171.868 24.5433 171.581 24.7656C171.294 24.9879 171.039 25.2736 170.816 25.6229C170.625 25.9721 170.513 26.3532 170.481 26.7659C170.417 27.3374 170.449 27.909 170.577 28.4805C170.736 29.0203 170.943 29.5442 171.198 30.0522C171.454 30.5602 171.74 31.0682 172.059 31.5762C172.378 32.0525 172.681 32.5288 172.968 33.005C173.573 34.0211 173.956 35.1324 174.115 36.3389C174.307 37.5137 174.004 38.8473 173.207 40.3396C172.729 41.1334 172.075 41.7208 171.246 42.1018C170.449 42.4828 169.62 42.7051 168.76 42.7686C167.931 42.8321 167.15 42.7368 166.417 42.4828C165.683 42.2605 165.157 41.9272 164.839 41.4826C164.392 40.8159 164.345 40.0062 164.695 39.0537C165.014 38.1011 165.636 37.2597 166.56 36.5294L168.999 37.6249C168.553 37.8471 168.138 38.1329 167.756 38.4821C167.405 38.7997 167.134 39.133 166.943 39.4823C166.783 39.7998 166.72 40.1015 166.751 40.3872C166.815 40.6412 167.038 40.8 167.421 40.8635C168.345 40.9587 169.142 40.7047 169.812 40.1015C170.481 39.4982 170.768 38.7362 170.673 37.8154C170.577 37.0533 170.338 36.3231 169.955 35.6245C169.605 34.926 169.222 34.2433 168.808 33.5766C168.393 32.878 168.011 32.1795 167.66 31.481C167.341 30.7825 167.166 30.0363 167.134 29.2425Z" fill="white"/>
<path d="M202.159 8.1438C203.147 7.79453 204.151 7.60403 205.171 7.57227C206.192 7.54052 207.148 7.6834 208.041 8.00092C208.933 8.28668 209.698 8.74707 210.336 9.3821C211.005 10.0171 211.468 10.8268 211.723 11.8111C212.137 13.3034 212.137 14.9068 211.723 16.6214C211.34 18.3042 210.639 19.9235 209.619 21.4793C208.63 23.0034 207.387 24.3687 205.889 25.5753C204.39 26.7818 202.765 27.6391 201.011 28.1471C199.896 28.4964 199.035 28.544 198.429 28.29C197.823 28.036 197.409 27.6391 197.186 27.0993C196.963 26.5278 196.915 25.8928 197.042 25.1942C197.17 24.464 197.409 23.7813 197.76 23.1463C198.302 22.7335 198.875 22.416 199.481 22.1937C200.119 21.9715 200.74 21.7333 201.346 21.4793C201.123 22.0509 200.852 22.67 200.533 23.3368C200.246 23.9718 200.23 24.5592 200.485 25.099C200.772 25.3847 201.171 25.48 201.681 25.3847C202.191 25.2577 202.653 25.0672 203.067 24.8132C205.14 23.5432 206.734 21.9239 207.849 19.9553C208.965 17.9549 209.507 15.8752 209.475 13.7161C209.443 13.1446 209.348 12.6049 209.188 12.0968C209.029 11.5571 208.806 11.0808 208.519 10.668C208.232 10.2553 207.865 9.92187 207.419 9.66786C206.973 9.41385 206.447 9.30272 205.841 9.33447C204.406 9.30272 203.02 9.69961 201.681 10.5251C200.374 11.3507 199.226 12.3191 198.238 13.4304C197.122 14.6687 196.15 15.9864 195.321 17.3834C194.492 18.7805 193.791 20.2252 193.217 21.7175C192.643 23.178 192.165 24.6703 191.782 26.1944C191.4 27.6867 191.097 29.1631 190.874 30.6237C190.778 31.7667 190.746 32.8939 190.778 34.0052C190.842 35.0848 191.017 36.1008 191.304 37.0533C191.623 38.0059 192.085 38.8632 192.691 39.6252C193.328 40.3872 194.173 40.9905 195.225 41.435C196.596 41.7843 197.887 41.7843 199.099 41.435C200.342 41.054 201.489 40.4825 202.541 39.7204C203.625 38.9584 204.614 38.0853 205.506 37.101C206.399 36.1167 207.18 35.18 207.849 34.291C207.658 35.4023 207.26 36.4659 206.654 37.482C206.08 38.4663 205.363 39.3712 204.502 40.1967C203.673 41.0222 202.733 41.7367 201.681 42.3399C200.661 42.975 199.609 43.4512 198.525 43.7687C197.473 44.118 196.421 44.2926 195.369 44.2926C194.317 44.3244 193.36 44.1497 192.5 43.7687C190.969 43.229 189.758 42.3082 188.865 41.0064C187.973 39.6728 187.351 38.2281 187.001 36.6723C186.395 33.783 186.443 30.7825 187.144 27.6708C187.845 24.5275 188.993 21.4952 190.587 18.5741C191.193 17.431 191.894 16.3356 192.691 15.2878C193.52 14.2083 194.428 13.224 195.417 12.335C196.405 11.4142 197.457 10.6045 198.573 9.90599C199.72 9.17571 200.916 8.58832 202.159 8.1438Z" fill="white"/>
<path d="M215.874 24.1941C217.117 23.9718 218.105 23.9559 218.838 24.1464C219.572 24.3369 220.114 24.6862 220.464 25.1942C220.815 25.7023 221.006 26.3373 221.038 27.0993C221.07 27.8296 221.006 28.6392 220.847 29.5283C220.719 30.2586 220.576 31.1317 220.416 32.1478C220.257 33.1638 220.018 34.2275 219.699 35.3388C219.38 36.4183 218.95 37.4979 218.408 38.5774C217.866 39.6569 217.165 40.6095 216.304 41.435C215.603 42.07 214.806 42.4987 213.913 42.7209C213.052 42.9432 212.224 42.9591 211.427 42.7686C210.63 42.6098 209.96 42.2764 209.418 41.7684C208.876 41.2604 208.589 40.5936 208.558 39.7681C208.366 38.3393 208.446 36.7358 208.797 34.9578C209.147 33.1479 209.641 31.481 210.279 29.9569C210.821 28.5281 211.506 27.3057 212.335 26.2897C213.164 25.2736 214.344 24.5751 215.874 24.1941ZM215.778 25.9086C215.427 26.3214 215.156 26.7183 214.965 27.0993C214.806 27.4803 214.694 27.8613 214.63 28.2424C214.567 28.5916 214.551 28.9568 214.583 29.3378C214.615 29.7188 214.646 30.1316 214.678 30.5761C214.36 30.6396 214.073 30.6237 213.818 30.5284C213.563 30.4014 213.339 30.2586 213.148 30.0998C212.734 31.6874 212.367 33.3067 212.048 34.9578C211.73 36.6088 211.618 38.1805 211.714 39.6728C211.841 40.4984 212.192 40.9746 212.766 41.1016C213.339 41.2286 213.945 40.9905 214.583 40.3872C214.997 39.911 215.364 39.2759 215.682 38.4821C216.001 37.6566 216.288 36.7517 216.543 35.7674C216.798 34.7831 217.021 33.783 217.213 32.7669C217.404 31.7509 217.563 30.8142 217.691 29.9569C217.755 29.4489 217.802 28.925 217.834 28.3852C217.898 27.8455 217.866 27.3851 217.739 27.0041C217.643 26.5913 217.436 26.2897 217.117 26.0991C216.83 25.8769 216.384 25.8134 215.778 25.9086Z" fill="white"/>
<path d="M223.687 28.29C223.846 27.6232 224.037 26.9564 224.261 26.2897C224.516 25.6229 224.834 25.0196 225.217 24.4798C225.631 23.9083 226.126 23.4162 226.699 23.0034C227.273 22.5906 227.99 22.3207 228.851 22.1937C229.776 22.0985 230.509 22.2414 231.051 22.6224C231.593 22.9716 231.959 23.4479 232.151 24.0512C232.342 24.6227 232.358 25.2736 232.198 26.0039C232.071 26.7342 231.8 27.4168 231.386 28.0518L229.138 27.4327C229.266 27.1469 229.393 26.8294 229.521 26.4802C229.68 26.1309 229.792 25.7816 229.855 25.4324C229.951 25.0831 229.983 24.7656 229.951 24.4798C229.951 24.1623 229.855 23.9242 229.664 23.7654C229.313 23.5432 228.947 23.5908 228.564 23.9083C228.214 24.1941 227.974 24.4957 227.847 24.8132C227.305 26.0515 226.923 27.3057 226.699 28.5757C226.476 29.8458 226.221 31.1 225.934 32.3383L229.282 32.2906C229.345 32.5447 229.297 32.8939 229.138 33.3384C229.011 33.7512 228.835 34.1163 228.612 34.4339L225.6 34.4815L223.543 43.0543C223.352 43.8164 223.097 44.5466 222.778 45.2452C222.459 45.9437 222.061 46.5787 221.583 47.1502C221.105 47.7218 220.531 48.198 219.861 48.5791C219.192 48.9601 218.411 49.2141 217.518 49.3411C216.849 49.4046 216.307 49.3252 215.892 49.1029C215.446 48.8807 215.127 48.5632 214.936 48.1504C214.713 47.7694 214.617 47.3249 214.649 46.8169C214.649 46.3088 214.777 45.7691 215.032 45.1975L218.14 43.3877C217.981 43.7052 217.821 44.1021 217.662 44.5784C217.47 45.0864 217.343 45.5627 217.279 46.0072C217.215 46.4835 217.247 46.8804 217.375 47.1979C217.502 47.5471 217.789 47.7218 218.236 47.7218C218.586 47.7535 218.889 47.563 219.144 47.1502C219.367 46.7692 219.574 46.2771 219.766 45.6738C219.925 45.1023 220.069 44.499 220.196 43.864C220.324 43.229 220.451 42.6892 220.579 42.2447L223.687 28.29Z" fill="white"/>
<path d="M233.493 28.29C233.653 27.6232 233.844 26.9564 234.067 26.2897C234.322 25.6229 234.641 25.0196 235.023 24.4798C235.438 23.9083 235.932 23.4162 236.506 23.0034C237.08 22.5906 237.797 22.3207 238.658 22.1937C239.582 22.0985 240.315 22.2414 240.857 22.6224C241.399 22.9716 241.766 23.4479 241.957 24.0512C242.148 24.6227 242.164 25.2736 242.005 26.0039C241.877 26.7342 241.606 27.4168 241.192 28.0518L238.945 27.4327C239.072 27.1469 239.2 26.8294 239.327 26.4802C239.486 26.1309 239.598 25.7816 239.662 25.4324C239.757 25.0831 239.789 24.7656 239.757 24.4798C239.757 24.1623 239.662 23.9242 239.471 23.7654C239.12 23.5432 238.753 23.5908 238.371 23.9083C238.02 24.1941 237.781 24.4957 237.653 24.8132C237.112 26.0515 236.729 27.3057 236.506 28.5757C236.283 29.8458 236.028 31.1 235.741 32.3383L239.088 32.2906C239.152 32.5447 239.104 32.8939 238.945 33.3384C238.817 33.7512 238.642 34.1163 238.419 34.4339L235.406 34.4815L233.35 43.0543C233.159 43.8164 232.904 44.5466 232.585 45.2452C232.266 45.9437 231.867 46.5787 231.389 47.1502C230.911 47.7218 230.337 48.198 229.668 48.5791C228.998 48.9601 228.217 49.2141 227.325 49.3411C226.655 49.4046 226.113 49.3252 225.699 49.1029C225.253 48.8807 224.934 48.5632 224.743 48.1504C224.519 47.7694 224.424 47.3249 224.456 46.8169C224.456 46.3088 224.583 45.7691 224.838 45.1975L227.946 43.3877C227.787 43.7052 227.628 44.1021 227.468 44.5784C227.277 45.0864 227.149 45.5627 227.086 46.0072C227.022 46.4835 227.054 46.8804 227.181 47.1979C227.309 47.5471 227.596 47.7218 228.042 47.7218C228.393 47.7535 228.696 47.563 228.951 47.1502C229.174 46.7692 229.381 46.2771 229.572 45.6738C229.732 45.1023 229.875 44.499 230.003 43.864C230.13 43.229 230.258 42.6892 230.385 42.2447L233.493 28.29Z" fill="white"/>
<path d="M244.891 25.2419C245.497 24.6703 246.134 24.2417 246.804 23.9559C247.505 23.6384 248.159 23.4955 248.764 23.5273C249.402 23.559 249.96 23.7337 250.438 24.0512C250.916 24.3687 251.235 24.8608 251.394 25.5276C251.649 26.5437 251.634 27.6867 251.347 28.9568C251.092 30.1951 250.629 31.3857 249.96 32.5288C249.29 33.6401 248.446 34.5926 247.426 35.3864C246.405 36.1484 245.274 36.5612 244.03 36.6247C243.999 37.0057 243.999 37.4502 244.03 37.9582C244.062 38.4663 244.158 38.9108 244.317 39.2918C244.509 39.6728 244.78 39.9586 245.13 40.1491C245.481 40.3396 245.943 40.3237 246.517 40.1015C247.346 39.7204 248.159 39.1648 248.956 38.4345C249.753 37.7042 250.486 36.9105 251.155 36.0532C251.825 35.1959 252.431 34.3386 252.972 33.4813C253.546 32.5923 254.009 31.8144 254.359 31.1476L255.746 31.1952C255.395 32.1478 254.853 33.1956 254.12 34.3386C253.419 35.4499 252.638 36.5294 251.777 37.5772C250.916 38.625 250.008 39.5617 249.051 40.3872C248.127 41.181 247.266 41.7366 246.469 42.0542C245.832 42.3717 245.178 42.5304 244.509 42.5304C243.839 42.5622 243.218 42.4511 242.644 42.197C242.102 41.943 241.64 41.562 241.257 41.054C240.874 40.546 240.635 39.911 240.54 39.1489C240.412 38.4186 240.412 37.4344 240.54 36.1961C240.699 34.926 240.954 33.6242 241.305 32.2906C241.687 30.9253 242.181 29.6077 242.787 28.3376C243.393 27.0358 244.094 26.0039 244.891 25.2419ZM244.317 34.7672C245.051 34.7037 245.688 34.4974 246.23 34.1481C246.804 33.7671 247.298 33.3067 247.712 32.7669C248.127 32.2271 248.462 31.6397 248.717 31.0047C248.972 30.3697 249.179 29.7664 249.338 29.1949C249.434 28.8456 249.514 28.4487 249.577 28.0042C249.673 27.5597 249.705 27.1469 249.673 26.7659C249.641 26.3532 249.545 26.0198 249.386 25.7658C249.259 25.48 249.004 25.3371 248.621 25.3371C248.111 25.4006 247.617 25.7816 247.139 26.4802C246.66 27.1787 246.214 28.0042 245.8 28.9568C245.417 29.9093 245.082 30.9253 244.796 32.0049C244.541 33.0527 244.381 33.9735 244.317 34.7672Z" fill="white"/>
<path d="M256.145 25.2419C256.751 24.6703 257.389 24.2417 258.058 23.9559C258.759 23.6384 259.413 23.4955 260.019 23.5273C260.656 23.559 261.214 23.7337 261.692 24.0512C262.17 24.3687 262.489 24.8608 262.649 25.5276C262.904 26.5437 262.888 27.6867 262.601 28.9568C262.346 30.1951 261.883 31.3857 261.214 32.5288C260.545 33.6401 259.7 34.5926 258.68 35.3864C257.66 36.1484 256.528 36.5612 255.285 36.6247C255.253 37.0057 255.253 37.4502 255.285 37.9582C255.316 38.4663 255.412 38.9108 255.571 39.2918C255.763 39.6728 256.034 39.9586 256.384 40.1491C256.735 40.3396 257.197 40.3237 257.771 40.1015C258.6 39.7204 259.413 39.1648 260.21 38.4345C261.007 37.7042 261.74 36.9105 262.409 36.0532C263.079 35.1959 263.685 34.3386 264.227 33.4813C264.8 32.5923 265.263 31.8144 265.613 31.1476L267 31.1952C266.649 32.1478 266.107 33.1956 265.374 34.3386C264.673 35.4499 263.892 36.5294 263.031 37.5772C262.17 38.625 261.262 39.5617 260.305 40.3872C259.381 41.181 258.52 41.7366 257.723 42.0542C257.086 42.3717 256.432 42.5304 255.763 42.5304C255.093 42.5622 254.472 42.4511 253.898 42.197C253.356 41.943 252.894 41.562 252.511 41.054C252.129 40.546 251.889 39.911 251.794 39.1489C251.666 38.4186 251.666 37.4344 251.794 36.1961C251.953 34.926 252.208 33.6242 252.559 32.2906C252.941 30.9253 253.436 29.6077 254.041 28.3376C254.647 27.0358 255.348 26.0039 256.145 25.2419ZM255.571 34.7672C256.305 34.7037 256.942 34.4974 257.484 34.1481C258.058 33.7671 258.552 33.3067 258.967 32.7669C259.381 32.2271 259.716 31.6397 259.971 31.0047C260.226 30.3697 260.433 29.7664 260.592 29.1949C260.688 28.8456 260.768 28.4487 260.831 28.0042C260.927 27.5597 260.959 27.1469 260.927 26.7659C260.895 26.3532 260.8 26.0198 260.64 25.7658C260.513 25.48 260.258 25.3371 259.875 25.3371C259.365 25.4006 258.871 25.7816 258.393 26.4802C257.915 27.1787 257.468 28.0042 257.054 28.9568C256.671 29.9093 256.337 30.9253 256.05 32.0049C255.795 33.0527 255.635 33.9735 255.571 34.7672Z" fill="white"/>
<path d="M23.3878 36.7246C21.9698 37.204 20.8354 37.6834 19.6443 38.0218C16.2411 38.9806 13.8588 41.0955 12.3274 44.2257C11.7318 45.4383 11.1646 46.679 10.4556 47.807C8.72565 50.6552 6.05981 52.0369 2.79841 52.3753C2.34465 52.4317 1.66401 52.0369 1.35205 51.6421C-0.236114 49.5554 -0.321194 47.2712 0.557966 44.9025C2.77005 39.037 10.4556 33.6509 16.7799 33.5663C19.389 33.5099 21.6011 34.2431 23.3878 36.7246Z" fill="white"/>
<path d="M16.8366 0.572876C16.6097 1.98285 16.4963 3.13903 16.241 4.29521C15.3051 8.29954 16.3261 11.7681 18.8785 14.87C21.516 18.0848 22.4235 21.5815 21.0339 25.5858C20.6935 26.5446 20.1831 26.9394 19.1621 27.024C15.9574 27.2778 13.6886 25.6704 12.1572 23.1325C8.92413 17.7464 8.30021 11.9655 10.3705 6.01538C11.3631 3.19543 13.2632 1.10867 16.8366 0.572876Z" fill="white"/>
<path d="M48.6849 20.0869C48.0327 20.8483 47.4938 21.6379 46.7848 22.2583C43.6085 25.1346 42.389 28.6596 42.701 32.8613C42.8144 34.3559 42.8144 35.9068 42.5875 37.3732C42.1621 40.024 40.5456 41.9697 38.3903 43.4643C37.9649 43.7463 37.1424 43.7463 36.6319 43.5489C34.1363 42.4773 32.8601 40.3905 32.7182 37.8244C32.3496 30.4643 35.3274 24.627 41.3964 20.4253C43.6936 18.8743 46.3311 18.8461 48.6849 20.0869Z" fill="white"/>
<path d="M22.9057 26.1498C23.1609 24.8808 23.3311 23.922 23.5296 22.9915C24.2102 20.0587 23.7565 17.2952 21.6295 15.152C17.6591 11.1195 17.3471 6.43836 18.5099 1.33426C18.7935 0.121679 19.3323 -0.103916 20.41 0.037081C22.7639 0.375475 24.6073 1.55985 25.9402 3.42102C29.9957 9.06092 30.5912 15.152 27.812 21.4969C26.9044 23.5836 25.3446 25.2192 22.9057 26.1498Z" fill="white"/>
<path d="M39.6948 44.6768C40.6874 43.8027 41.3964 43.2387 42.077 42.6465C44.5727 40.3341 45.5653 37.486 44.913 34.1584C43.7786 28.6313 46.5579 24.7116 50.3014 21.2431C50.585 20.9893 51.5493 21.0739 51.9463 21.3841C54.3285 23.1606 55.1226 25.755 55.0659 28.5185C54.9241 34.8634 52.1732 39.9393 46.8415 43.4643C44.8279 44.7332 42.6442 45.269 39.6948 44.6768Z" fill="white"/>
<path d="M3.73425 54.1519C5.09553 53.7571 6.17321 53.4751 7.2509 53.1367C10.0869 52.2625 12.1005 50.4295 12.9513 47.6096C14.6245 42.0825 18.8785 39.7701 23.9833 38.473C24.3803 38.3602 25.2028 38.8396 25.4013 39.2625C26.4223 41.3211 26.2237 43.4643 25.4297 45.551C23.1609 51.5575 16.1559 56.3514 9.71822 56.3232C7.59122 56.2668 5.57765 55.872 3.73425 54.1519Z" fill="white"/>
</svg>
