<svg width="873" height="205" viewBox="0 0 873 205" fill="none" xmlns="http://www.w3.org/2000/svg">
<path d="M259.911 157C248.717 157 240.745 154.068 235.996 148.204C231.332 142.254 229 133.713 229 122.579V85.3532C229 73.9645 231.332 65.3805 235.996 59.6012C240.66 53.7368 248.632 50.8047 259.911 50.8047C270.681 50.8047 278.313 53.3969 282.808 58.5813C287.302 63.7657 289.55 71.1173 289.55 80.6363V89.5602H267.289V79.2339C267.289 75.2394 266.865 72.1797 266.017 70.055C265.169 67.9302 263.133 66.8678 259.911 66.8678C256.688 66.8678 254.568 68.0152 253.551 70.3099C252.533 72.5197 252.024 75.6218 252.024 79.6164V128.188C252.024 132.268 252.533 135.412 253.551 137.622C254.653 139.747 256.773 140.809 259.911 140.809C263.049 140.809 265.041 139.747 265.89 137.622C266.822 135.412 267.289 132.268 267.289 128.188V117.352H289.55V126.276C289.55 135.965 287.302 143.529 282.808 148.968C278.313 154.323 270.681 157 259.911 157Z" fill="white"/>
<path d="M325.101 156.745C317.044 156.745 310.726 154.705 306.147 150.626C301.652 146.546 299.405 140.554 299.405 132.65V104.604C299.405 96.6994 301.652 90.7076 306.147 86.6281C310.726 82.5485 317.044 80.5088 325.101 80.5088C333.157 80.5088 339.475 82.591 344.054 86.7556C348.633 90.8351 350.923 96.7844 350.923 104.604V132.65C350.923 140.469 348.633 146.461 344.054 150.626C339.475 154.705 333.157 156.745 325.101 156.745ZM325.228 142.977C327.178 142.977 328.535 142.254 329.298 140.809C330.062 139.28 330.443 137.027 330.443 134.053V103.201C330.443 100.227 330.062 98.0168 329.298 96.5719C328.535 95.0421 327.178 94.2772 325.228 94.2772C323.277 94.2772 321.878 95.0421 321.03 96.5719C320.267 98.1018 319.885 100.312 319.885 103.201V134.053C319.885 137.027 320.267 139.28 321.03 140.809C321.878 142.254 323.277 142.977 325.228 142.977Z" fill="white"/>
<path d="M362.422 81.7836H383.157V89.1778C388.923 83.3984 394.817 80.5088 400.838 80.5088C405.248 80.5088 408.598 82.1236 410.887 85.3532C413.262 88.4979 414.449 92.6199 414.449 97.7193V155.47H393.842V100.651C393.842 98.7817 393.503 97.4218 392.824 96.5719C392.231 95.637 391.171 95.1696 389.644 95.1696C387.948 95.1696 385.786 96.062 383.157 97.8468V155.47H362.422V81.7836Z" fill="white"/>
<path d="M450.936 156.745C442.88 156.745 436.604 154.62 432.11 150.371C427.615 146.036 425.368 139.959 425.368 132.14V105.113C425.368 97.2944 427.615 91.26 432.11 87.0105C436.604 82.676 442.88 80.5088 450.936 80.5088C459.077 80.5088 465.183 82.591 469.254 86.7556C473.324 90.9201 475.36 97.0394 475.36 105.113V119.902H445.848V134.053C445.848 139.322 447.544 141.957 450.936 141.957C454.498 141.957 456.279 139.577 456.279 134.818V127.041H475.36V134.18C475.36 141.574 473.197 147.184 468.872 151.008C464.632 154.833 458.653 156.745 450.936 156.745ZM456.279 110.213V102.819C456.279 100.099 455.77 98.1867 454.752 97.0819C453.82 95.892 452.505 95.2971 450.809 95.2971C449.198 95.2971 447.968 95.9345 447.12 97.2094C446.272 98.4842 445.848 100.736 445.848 103.966V110.213H456.279Z" fill="white"/>
<path d="M510.561 156.745C502.589 156.745 496.356 154.578 491.862 150.243C487.367 145.909 485.12 139.874 485.12 132.14V105.113C485.12 97.2944 487.325 91.26 491.734 87.0105C496.229 82.676 502.504 80.5088 510.561 80.5088C518.532 80.5088 524.638 82.3786 528.878 86.1181C533.203 89.8577 535.366 95.3821 535.366 102.691V110.468H515.394V102.054C515.394 99.2491 514.97 97.3368 514.122 96.317C513.359 95.2121 512.172 94.6597 510.561 94.6597C508.949 94.6597 507.762 95.3396 506.999 96.6994C506.321 97.9743 505.981 100.184 505.981 103.329V133.925C505.981 137.07 506.363 139.28 507.126 140.554C507.889 141.829 509.077 142.467 510.688 142.467C512.299 142.467 513.486 141.914 514.25 140.809C515.013 139.704 515.394 137.835 515.394 135.2V125.384H535.366V134.308C535.366 141.617 533.203 147.184 528.878 151.008C524.553 154.833 518.447 156.745 510.561 156.745Z" fill="white"/>
<path d="M568.919 156.235C563.492 156.235 559.294 155.47 556.326 153.94C553.358 152.326 551.28 150.031 550.093 147.056C548.905 144.081 548.312 140.214 548.312 135.455V95.4246H541.188V81.7836H548.312V59.3462H569.301V81.7836H579.731V95.4246H569.301V133.415C569.301 135.455 569.852 136.985 570.954 138.005C572.142 138.94 573.753 139.407 575.788 139.407C577.484 139.407 579.35 139.237 581.385 138.897V155.215C577.315 155.895 573.159 156.235 568.919 156.235Z" fill="white"/>
<path d="M606.256 156.745C602.694 156.745 599.599 155.895 596.97 154.195C594.426 152.411 592.475 150.158 591.118 147.439C589.846 144.634 589.21 141.744 589.21 138.77C589.21 133.075 590.652 128.401 593.535 124.746C596.419 121.092 599.853 118.244 603.839 116.205C607.909 114.165 613.125 112.04 619.485 109.83V102.436C619.485 100.311 619.146 98.6967 618.467 97.5918C617.874 96.4869 616.771 95.9345 615.16 95.9345C613.549 95.9345 612.404 96.4444 611.726 97.4643C611.047 98.4842 610.666 99.9291 610.581 101.799L610.072 107.153L590.737 106.388C591.076 97.5493 593.408 91.0476 597.733 86.883C602.058 82.6335 608.503 80.5088 617.068 80.5088C624.276 80.5088 629.789 82.5485 633.605 86.6281C637.421 90.6226 639.329 95.977 639.329 102.691V137.112C639.329 144.591 639.753 150.711 640.601 155.47H622.029C621.266 149.776 620.715 146.291 620.376 145.016C619.358 148.416 617.662 151.221 615.287 153.43C612.913 155.64 609.902 156.745 606.256 156.745ZM613.634 142.722C615.754 142.722 617.704 141.489 619.485 139.025V118.882C615.669 121.092 612.786 123.429 610.835 125.894C608.885 128.273 607.909 131.205 607.909 134.69C607.909 137.155 608.418 139.11 609.436 140.554C610.453 141.999 611.853 142.722 613.634 142.722Z" fill="white"/>
<path d="M682.272 157C671.078 157 663.106 154.068 658.357 148.204C653.693 142.254 651.361 133.713 651.361 122.579V85.3532C651.361 73.9645 653.693 65.3805 658.357 59.6012C663.021 53.7368 670.993 50.8047 682.272 50.8047C693.042 50.8047 700.674 53.3969 705.169 58.5813C709.663 63.7657 711.911 71.1173 711.911 80.6363V89.5602H689.65V79.2339C689.65 75.2394 689.226 72.1797 688.378 70.055C687.53 67.9302 685.494 66.8678 682.272 66.8678C679.049 66.8678 676.929 68.0152 675.911 70.3099C674.894 72.5197 674.385 75.6218 674.385 79.6164V128.188C674.385 132.268 674.894 135.412 675.911 137.622C677.014 139.747 679.134 140.809 682.272 140.809C685.409 140.809 687.402 139.747 688.25 137.622C689.183 135.412 689.65 132.268 689.65 128.188V117.352H711.911V126.276C711.911 135.965 709.663 143.529 705.169 148.968C700.674 154.323 693.042 157 682.272 157Z" fill="white"/>
<path d="M738.43 156.745C734.868 156.745 731.773 155.895 729.144 154.195C726.6 152.411 724.649 150.158 723.292 147.439C722.02 144.634 721.384 141.744 721.384 138.77C721.384 133.075 722.826 128.401 725.709 124.746C728.593 121.092 732.027 118.244 736.013 116.205C740.084 114.165 745.299 112.04 751.659 109.83V102.436C751.659 100.311 751.32 98.6967 750.642 97.5918C750.048 96.4869 748.945 95.9345 747.334 95.9345C745.723 95.9345 744.578 96.4444 743.9 97.4643C743.221 98.4842 742.84 99.9291 742.755 101.799L742.246 107.153L722.911 106.388C723.25 97.5493 725.582 91.0476 729.907 86.883C734.232 82.6335 740.677 80.5088 749.242 80.5088C756.451 80.5088 761.963 82.5485 765.779 86.6281C769.595 90.6226 771.503 95.977 771.503 102.691V137.112C771.503 144.591 771.927 150.711 772.775 155.47H754.203C753.44 149.776 752.889 146.291 752.55 145.016C751.532 148.416 749.836 151.221 747.461 153.43C745.087 155.64 742.076 156.745 738.43 156.745ZM745.808 142.722C747.928 142.722 749.878 141.489 751.659 139.025V118.882C747.843 121.092 744.96 123.429 743.009 125.894C741.059 128.273 740.084 131.205 740.084 134.69C740.084 137.155 740.592 139.11 741.61 140.554C742.628 141.999 744.027 142.722 745.808 142.722Z" fill="white"/>
<path d="M786.461 95.807H779.464V81.7836H786.461V76.3018C786.461 71.3723 786.927 67.4203 787.86 64.4456C788.793 61.386 790.701 59.0062 793.584 57.3064C796.552 55.6066 800.877 54.7567 806.559 54.7567C810.121 54.7567 813.428 54.9692 816.481 55.3942V70.8199C814.615 70.3949 813.131 70.1825 812.029 70.1825C808.806 70.1825 807.195 72.0947 807.195 75.9193V81.7836H816.481V95.807H807.195V155.47H786.461V95.807Z" fill="white"/>
<path d="M848.577 156.745C840.52 156.745 834.245 154.62 829.75 150.371C825.256 146.036 823.008 139.959 823.008 132.14V105.113C823.008 97.2944 825.256 91.26 829.75 87.0105C834.245 82.676 840.52 80.5088 848.577 80.5088C856.718 80.5088 862.824 82.591 866.894 86.7556C870.965 90.9201 873 97.0394 873 105.113V119.902H843.488V134.053C843.488 139.322 845.184 141.957 848.577 141.957C852.138 141.957 853.919 139.577 853.919 134.818V127.041H873V134.18C873 141.574 870.837 147.184 866.513 151.008C862.272 154.833 856.294 156.745 848.577 156.745ZM853.919 110.213V102.819C853.919 100.099 853.41 98.1867 852.393 97.0819C851.46 95.892 850.145 95.2971 848.449 95.2971C846.838 95.2971 845.608 95.9345 844.76 97.2094C843.912 98.4842 843.488 100.736 843.488 103.966V110.213H853.919ZM849.467 48H870.583L854.555 73.6246H841.453L849.467 48Z" fill="white"/>
<path d="M183.262 127.063C172.594 161.493 140.489 186.493 102.556 186.493C55.9054 186.493 18.0723 148.674 18.0723 102.026C18.0723 55.3775 55.8929 17.5587 102.556 17.5587C139.451 17.5587 170.831 41.208 182.337 74.1868H200.597C188.403 31.3531 148.994 0 102.256 0C45.7874 0 0 45.7727 0 102.251C0 158.716 45.7749 204.502 102.256 204.502C150.169 204.502 190.391 171.548 201.472 127.063H183.262Z" fill="white"/>
<path d="M100.742 32.8662C62.4214 32.8662 31.3545 63.9316 31.3545 102.251C31.3545 140.57 62.4214 171.635 100.742 171.635C139.063 171.635 170.13 140.57 170.13 102.251C170.13 63.9316 139.063 32.8662 100.742 32.8662ZM100.742 159.379C69.1876 159.379 43.6112 133.804 43.6112 102.251C43.6112 70.6975 69.1876 45.1223 100.742 45.1223C132.297 45.1223 157.873 70.6975 157.873 102.251C157.873 133.804 132.297 159.379 100.742 159.379Z" fill="white"/>
<path d="M72.1393 142.483C59.0071 133.666 50.3774 118.696 50.3774 101.7C50.3774 74.5869 72.3519 52.6135 99.4667 52.6135C106.871 52.6135 113.887 54.2518 120.178 57.1908C113.374 63.3564 107.909 70.2848 103.932 77.801C98.9664 87.1932 97.3655 95.2722 95.8147 103.089C94.1263 111.643 92.5254 119.722 86.4846 128.426C82.7326 133.829 77.9049 138.556 72.1393 142.483Z" fill="white"/>
<path d="M151.107 102.801C151.107 129.914 129.133 151.888 102.018 151.888C92.9629 151.888 84.4833 149.437 77.2043 145.172C82.8199 141.195 87.5475 136.455 91.287 131.077C97.653 121.898 99.3039 113.556 101.055 104.714C102.568 97.098 104.119 89.2066 108.897 80.1771C112.874 72.6609 118.402 65.745 125.343 59.6169C140.701 67.8961 151.107 84.1291 151.107 102.801Z" fill="white"/>
<path d="M182.137 115.47C181.599 115.645 181.049 115.795 180.498 115.945C178.084 116.471 175.671 116.983 173.244 117.509C176.058 116.358 180.536 114.107 184.713 109.78C185.539 108.929 187.515 106.791 189.403 103.614C193.205 97.236 194.168 90.8578 194.381 86.6432C183.275 89.4946 175.471 94.7847 172.869 99.1119C171.218 101.851 170.593 103.977 170.593 103.977C169.755 106.841 170.13 108.279 169.205 111.618C168.779 113.144 168.342 114.169 167.629 115.783C166.541 118.259 164.815 121.698 162.063 125.638C162.626 120.648 163.189 115.645 163.752 110.655C163.514 108.079 163.702 105.565 164.302 103.176C165.378 98.8743 167.804 94.9473 171.493 91.5206C174.395 88.8193 178.084 86.4181 182.474 84.3671C190.066 80.8153 197.357 79.4646 198.158 79.3271L200.572 78.9019L200.747 81.3531C200.847 82.8163 201.072 88.0689 199.784 94.0594C199.008 97.6612 197.808 100.925 196.232 103.752C194.256 107.291 191.667 110.18 188.54 112.331C186.602 113.682 184.45 114.732 182.137 115.47Z" fill="white"/>
</svg>
