<svg width="487" height="528" viewBox="0 0 487 528" fill="none" xmlns="http://www.w3.org/2000/svg">
<path d="M23.328 527.152C14.88 527.152 8.864 524.944 5.28 520.528C1.76 516.048 0 509.616 0 501.232V473.2C0 464.624 1.76 458.16 5.28 453.808C8.8 449.392 14.816 447.184 23.328 447.184C31.456 447.184 37.216 449.136 40.608 453.04C44 456.944 45.696 462.48 45.696 469.648V476.368H28.896V468.592C28.896 465.584 28.576 463.28 27.936 461.68C27.296 460.08 25.76 459.28 23.328 459.28C20.896 459.28 19.296 460.144 18.528 461.872C17.76 463.536 17.376 465.872 17.376 468.88V505.456C17.376 508.528 17.76 510.896 18.528 512.56C19.36 514.16 20.96 514.96 23.328 514.96C25.696 514.96 27.2 514.16 27.84 512.56C28.544 510.896 28.896 508.528 28.896 505.456V497.296H45.696V504.016C45.696 511.312 44 517.008 40.608 521.104C37.216 525.136 31.456 527.152 23.328 527.152Z" fill="#232323"/>
<path d="M72.5257 526.96C66.4457 526.96 61.6777 525.424 58.2217 522.352C54.8297 519.28 53.1338 514.768 53.1338 508.816V487.696C53.1338 481.744 54.8297 477.232 58.2217 474.16C61.6777 471.088 66.4457 469.552 72.5257 469.552C78.6058 469.552 83.3738 471.12 86.8298 474.256C90.2858 477.328 92.0137 481.808 92.0137 487.696V508.816C92.0137 514.704 90.2858 519.216 86.8298 522.352C83.3738 525.424 78.6058 526.96 72.5257 526.96ZM72.6217 516.592C74.0938 516.592 75.1177 516.048 75.6937 514.96C76.2697 513.808 76.5577 512.112 76.5577 509.872V486.64C76.5577 484.4 76.2697 482.736 75.6937 481.648C75.1177 480.496 74.0938 479.92 72.6217 479.92C71.1497 479.92 70.0938 480.496 69.4538 481.648C68.8778 482.8 68.5897 484.464 68.5897 486.64V509.872C68.5897 512.112 68.8778 513.808 69.4538 514.96C70.0938 516.048 71.1497 516.592 72.6217 516.592Z" fill="#232323"/>
<path d="M100.692 470.512H116.34V476.08C120.692 471.728 125.14 469.552 129.684 469.552C133.012 469.552 135.54 470.768 137.268 473.2C139.06 475.568 139.956 478.672 139.956 482.512V526H124.404V484.72C124.404 483.312 124.148 482.288 123.636 481.648C123.188 480.944 122.388 480.592 121.236 480.592C119.956 480.592 118.324 481.264 116.34 482.608V526H100.692V470.512Z" fill="#232323"/>
<path d="M167.492 526.96C161.412 526.96 156.676 525.36 153.284 522.16C149.892 518.896 148.196 514.32 148.196 508.432V488.08C148.196 482.192 149.892 477.648 153.284 474.448C156.676 471.184 161.412 469.552 167.492 469.552C173.636 469.552 178.244 471.12 181.316 474.256C184.388 477.392 185.924 482 185.924 488.08V499.216H163.652V509.872C163.652 513.84 164.932 515.824 167.492 515.824C170.18 515.824 171.524 514.032 171.524 510.448V504.592H185.924V509.968C185.924 515.536 184.292 519.76 181.028 522.64C177.828 525.52 173.316 526.96 167.492 526.96ZM171.524 491.92V486.352C171.524 484.304 171.14 482.864 170.372 482.032C169.668 481.136 168.676 480.688 167.396 480.688C166.18 480.688 165.252 481.168 164.612 482.128C163.972 483.088 163.652 484.784 163.652 487.216V491.92H171.524Z" fill="#232323"/>
<path d="M212.49 526.96C206.474 526.96 201.77 525.328 198.378 522.064C194.986 518.8 193.29 514.256 193.29 508.432V488.08C193.29 482.192 194.954 477.648 198.282 474.448C201.674 471.184 206.41 469.552 212.49 469.552C218.506 469.552 223.114 470.96 226.314 473.776C229.578 476.592 231.21 480.752 231.21 486.256V492.112H216.138V485.776C216.138 483.664 215.818 482.224 215.178 481.456C214.602 480.624 213.706 480.208 212.49 480.208C211.274 480.208 210.378 480.72 209.802 481.744C209.29 482.704 209.034 484.368 209.034 486.736V509.776C209.034 512.144 209.322 513.808 209.898 514.768C210.474 515.728 211.37 516.208 212.586 516.208C213.802 516.208 214.698 515.792 215.274 514.96C215.85 514.128 216.138 512.72 216.138 510.736V503.344H231.21V510.064C231.21 515.568 229.578 519.76 226.314 522.64C223.05 525.52 218.442 526.96 212.49 526.96Z" fill="#232323"/>
<path d="M256.532 526.576C252.436 526.576 249.268 526 247.028 524.848C244.788 523.632 243.22 521.904 242.324 519.664C241.428 517.424 240.98 514.512 240.98 510.928V480.784H235.604V470.512H240.98V453.616H256.82V470.512H264.692V480.784H256.82V509.392C256.82 510.928 257.236 512.08 258.068 512.848C258.964 513.552 260.18 513.904 261.716 513.904C262.996 513.904 264.404 513.776 265.94 513.52V525.808C262.868 526.32 259.732 526.576 256.532 526.576Z" fill="#232323"/>
<path d="M284.71 526.96C282.022 526.96 279.686 526.32 277.702 525.04C275.782 523.696 274.31 522 273.286 519.952C272.326 517.84 271.846 515.664 271.846 513.424C271.846 509.136 272.934 505.616 275.11 502.864C277.286 500.112 279.878 497.968 282.886 496.432C285.958 494.896 289.894 493.296 294.694 491.632V486.064C294.694 484.464 294.438 483.248 293.926 482.416C293.478 481.584 292.646 481.168 291.43 481.168C290.214 481.168 289.35 481.552 288.838 482.32C288.326 483.088 288.038 484.176 287.974 485.584L287.59 489.616L272.998 489.04C273.254 482.384 275.014 477.488 278.278 474.352C281.542 471.152 286.406 469.552 292.87 469.552C298.31 469.552 302.47 471.088 305.35 474.16C308.23 477.168 309.67 481.2 309.67 486.256V512.176C309.67 517.808 309.99 522.416 310.63 526H296.614C296.038 521.712 295.622 519.088 295.366 518.128C294.598 520.688 293.318 522.8 291.526 524.464C289.734 526.128 287.462 526.96 284.71 526.96ZM290.278 516.4C291.878 516.4 293.35 515.472 294.694 513.616V498.448C291.814 500.112 289.638 501.872 288.166 503.728C286.694 505.52 285.958 507.728 285.958 510.352C285.958 512.208 286.342 513.68 287.11 514.768C287.878 515.856 288.934 516.4 290.278 516.4Z" fill="#232323"/>
<path d="M342.078 527.152C333.63 527.152 327.614 524.944 324.03 520.528C320.51 516.048 318.75 509.616 318.75 501.232V473.2C318.75 464.624 320.51 458.16 324.03 453.808C327.55 449.392 333.566 447.184 342.078 447.184C350.206 447.184 355.966 449.136 359.358 453.04C362.75 456.944 364.446 462.48 364.446 469.648V476.368H347.646V468.592C347.646 465.584 347.326 463.28 346.686 461.68C346.046 460.08 344.51 459.28 342.078 459.28C339.646 459.28 338.046 460.144 337.278 461.872C336.51 463.536 336.126 465.872 336.126 468.88V505.456C336.126 508.528 336.51 510.896 337.278 512.56C338.11 514.16 339.71 514.96 342.078 514.96C344.446 514.96 345.95 514.16 346.59 512.56C347.294 510.896 347.646 508.528 347.646 505.456V497.296H364.446V504.016C364.446 511.312 362.75 517.008 359.358 521.104C355.966 525.136 350.206 527.152 342.078 527.152Z" fill="#232323"/>
<path d="M384.46 526.96C381.772 526.96 379.436 526.32 377.452 525.04C375.532 523.696 374.06 522 373.036 519.952C372.076 517.84 371.596 515.664 371.596 513.424C371.596 509.136 372.684 505.616 374.86 502.864C377.036 500.112 379.628 497.968 382.636 496.432C385.708 494.896 389.644 493.296 394.444 491.632V486.064C394.444 484.464 394.188 483.248 393.676 482.416C393.228 481.584 392.396 481.168 391.18 481.168C389.964 481.168 389.1 481.552 388.588 482.32C388.076 483.088 387.788 484.176 387.724 485.584L387.34 489.616L372.748 489.04C373.004 482.384 374.764 477.488 378.028 474.352C381.292 471.152 386.156 469.552 392.62 469.552C398.06 469.552 402.22 471.088 405.1 474.16C407.98 477.168 409.42 481.2 409.42 486.256V512.176C409.42 517.808 409.74 522.416 410.38 526H396.364C395.788 521.712 395.372 519.088 395.116 518.128C394.348 520.688 393.068 522.8 391.276 524.464C389.484 526.128 387.212 526.96 384.46 526.96ZM390.028 516.4C391.628 516.4 393.1 515.472 394.444 513.616V498.448C391.564 500.112 389.388 501.872 387.916 503.728C386.444 505.52 385.708 507.728 385.708 510.352C385.708 512.208 386.092 513.68 386.86 514.768C387.628 515.856 388.684 516.4 390.028 516.4Z" fill="#232323"/>
<path d="M420.708 481.072H415.428V470.512H420.708V466.384C420.708 462.672 421.06 459.696 421.764 457.456C422.468 455.152 423.908 453.36 426.084 452.08C428.324 450.8 431.588 450.16 435.876 450.16C438.564 450.16 441.06 450.32 443.364 450.64V462.256C441.956 461.936 440.836 461.776 440.004 461.776C437.572 461.776 436.356 463.216 436.356 466.096V470.512H443.364V481.072H436.356V526H420.708V481.072Z" fill="#232323"/>
<path d="M467.586 526.96C461.506 526.96 456.77 525.36 453.378 522.16C449.986 518.896 448.29 514.32 448.29 508.432V488.08C448.29 482.192 449.986 477.648 453.378 474.448C456.77 471.184 461.506 469.552 467.586 469.552C473.73 469.552 478.338 471.12 481.41 474.256C484.482 477.392 486.018 482 486.018 488.08V499.216H463.746V509.872C463.746 513.84 465.026 515.824 467.586 515.824C470.274 515.824 471.618 514.032 471.618 510.448V504.592H486.018V509.968C486.018 515.536 484.386 519.76 481.122 522.64C477.922 525.52 473.41 526.96 467.586 526.96ZM471.618 491.92V486.352C471.618 484.304 471.234 482.864 470.466 482.032C469.762 481.136 468.77 480.688 467.49 480.688C466.274 480.688 465.346 481.168 464.706 482.128C464.066 483.088 463.746 484.784 463.746 487.216V491.92H471.618ZM468.258 445.072H484.194L472.098 464.368H462.21L468.258 445.072Z" fill="#232323"/>
<path d="M248.66 405.742C360.196 405.742 450.614 315.328 450.614 203.797C450.614 92.2666 360.196 1.85303 248.66 1.85303C137.123 1.85303 46.7054 92.2666 46.7054 203.797C46.7054 315.328 137.123 405.742 248.66 405.742Z" fill="white"/>
<path d="M408.265 254.434C386.902 323.377 322.614 373.437 246.656 373.437C153.242 373.437 77.4845 297.708 77.4845 204.298C77.4845 110.889 153.217 35.16 246.656 35.16C320.536 35.16 383.371 82.5157 406.411 148.553H442.975C418.558 62.7821 339.644 0 246.055 0C132.982 0 41.296 91.6563 41.296 204.749C41.296 317.817 132.957 409.498 246.055 409.498C341.998 409.498 422.54 343.511 444.729 254.434H408.265Z" fill="#232323"/>
<path d="M243.025 65.8123C166.29 65.8123 104.081 128.018 104.081 204.749C104.081 281.48 166.29 343.686 243.025 343.686C319.759 343.686 381.969 281.48 381.969 204.749C381.969 128.018 319.759 65.8123 243.025 65.8123ZM243.025 319.144C179.839 319.144 128.624 267.932 128.624 204.749C128.624 141.566 179.839 90.3541 243.025 90.3541C306.211 90.3541 357.425 141.566 357.425 204.749C357.425 267.932 306.211 319.144 243.025 319.144Z" fill="#F15A22"/>
<path d="M185.749 285.312C159.453 267.657 142.173 237.68 142.173 203.647C142.173 149.355 186.175 105.355 240.47 105.355C255.296 105.355 269.346 108.635 281.943 114.52C268.319 126.866 257.375 140.74 249.411 155.791C239.469 174.598 236.263 190.775 233.158 206.427C229.777 223.556 226.571 239.734 214.475 257.164C206.962 267.982 197.295 277.448 185.749 285.312Z" fill="#9B4E22"/>
<path d="M343.877 205.851C343.877 260.144 299.874 304.144 245.579 304.144C227.447 304.144 210.468 299.235 195.892 290.696C207.137 282.732 216.603 273.241 224.092 262.473C236.839 244.091 240.145 227.388 243.651 209.683C246.681 194.432 249.787 178.63 259.353 160.549C267.317 145.498 278.387 131.65 292.286 119.379C323.04 135.957 343.877 168.462 343.877 205.851Z" fill="#9B4E22"/>
<path d="M406.011 231.22C404.934 231.57 403.832 231.871 402.73 232.171C397.896 233.223 393.063 234.25 388.204 235.302C393.839 232.998 402.805 228.49 411.17 219.825C412.823 218.122 416.78 213.84 420.561 207.479C428.175 194.707 430.103 181.935 430.529 173.496C408.29 179.206 392.662 189.799 387.453 198.464C384.147 203.948 382.895 208.205 382.895 208.205C381.217 213.94 381.968 216.82 380.115 223.506C379.264 226.562 378.387 228.615 376.96 231.846C374.781 236.804 371.325 243.691 365.815 251.579C366.942 241.587 368.069 231.57 369.196 221.578C368.72 216.419 369.096 211.386 370.298 206.603C372.452 197.988 377.31 190.124 384.698 183.263C390.508 177.854 397.896 173.045 406.687 168.938C421.889 161.826 436.489 159.122 438.092 158.846L442.925 157.995L443.276 162.903C443.476 165.833 443.927 176.351 441.348 188.346C439.795 195.559 437.391 202.095 434.235 207.755C430.278 214.842 425.094 220.626 418.833 224.934C414.951 227.638 410.644 229.742 406.011 231.22Z" fill="#F15B24"/>
</svg>
