<svg width="25" height="25" viewBox="0 0 25 25" fill="none" xmlns="http://www.w3.org/2000/svg">
<path d="M24.5407 19.5831L18.8361 14.3964C18.5665 14.1513 18.2121 14.0206 17.8479 14.0319C17.4837 14.0431 17.1381 14.1955 16.8841 14.4567L13.5259 17.9103C12.7175 17.756 11.0925 17.2494 9.41966 15.5808C7.74687 13.9066 7.24027 12.2774 7.09011 11.4746L10.5409 8.11506C10.8025 7.86124 10.9551 7.51559 10.9664 7.15126C10.9776 6.78693 10.8467 6.43252 10.6013 6.16302L5.41591 0.459862C5.17039 0.189519 4.82914 0.0255356 4.46466 0.00273902C4.10017 -0.0200576 3.74116 0.100129 3.46386 0.337772L0.418594 2.94938C0.17597 3.19288 0.0311564 3.51696 0.0116225 3.86015C-0.00942774 4.21098 -0.410785 12.5215 6.03339 18.9685C11.6552 24.5888 18.6972 25 20.6366 25C20.9201 25 21.0941 24.9916 21.1404 24.9888C21.4836 24.9696 21.8075 24.8241 22.0498 24.5804L24.66 21.5338C24.8986 21.2574 25.0197 20.8986 24.9974 20.5342C24.9751 20.1697 24.8112 19.8284 24.5407 19.5831Z" fill="#593C34"/>
</svg>
